<svg width="316" height="316" viewBox="0 0 316 316" fill="none" xmlns="http://www.w3.org/2000/svg">
<line x1="149.245" y1="151.677" x2="148.941" y2="189.824" stroke="#590E87" stroke-width="4"/>
<line x1="183.83" y1="151.156" x2="183.526" y2="189.303" stroke="#590E87" stroke-width="4"/>
<line x1="165.71" y1="167.002" x2="165.71" y2="174.058" stroke="#590E87" stroke-width="4"/>
<line x1="136.847" y1="166.396" x2="136.847" y2="180.225" stroke="#590E87" stroke-width="4"/>
<line x1="194.012" y1="181.285" x2="193.96" y2="167.456" stroke="#590E87" stroke-width="4"/>
<line x1="154.617" y1="161.151" x2="154.617" y2="180.225" stroke="#590E87" stroke-width="4"/>
<line x1="171.432" y1="164.79" x2="171.432" y2="176.117" stroke="#590E87" stroke-width="4"/>
<line x1="142.569" y1="161.151" x2="142.569" y2="180.225" stroke="#590E87" stroke-width="4"/>
<line x1="189.047" y1="181.391" x2="188.975" y2="162.318" stroke="#590E87" stroke-width="4"/>
<line x1="160.339" y1="164.79" x2="160.339" y2="176.117" stroke="#590E87" stroke-width="4"/>
<line x1="177.154" y1="161.151" x2="177.154" y2="180.395" stroke="#590E87" stroke-width="4"/>
<mask id="path-12-inside-1_70_938" fill="white">
<path fill-rule="evenodd" clip-rule="evenodd" d="M171.25 131.484C174.715 129.809 178.785 130.269 181.679 132.663L188.812 138.561C188.48 139.216 188.062 139.857 187.561 140.479C186.215 142.152 184.29 143.656 181.898 144.906C179.506 146.157 176.693 147.129 173.619 147.767C170.546 148.405 167.272 148.697 163.985 148.626C160.698 148.554 157.462 148.122 154.462 147.352C151.462 146.582 148.757 145.49 146.5 144.139C144.244 142.788 142.481 141.204 141.312 139.477C140.868 138.821 140.513 138.15 140.248 137.468L146.09 132.847C149.679 130.008 154.511 129.389 158.578 131.248L159.5 131.669C163.201 133.36 167.51 133.293 171.25 131.484ZM138.217 134.044L143.656 129.741C148.447 125.952 154.896 125.125 160.325 127.606L161.247 128.028C163.873 129.228 166.931 129.179 169.585 127.896C174.468 125.536 180.203 126.184 184.283 129.558L191.093 135.189L195.148 135.277C195.031 137.514 194.128 139.711 192.491 141.744C190.854 143.778 188.514 145.606 185.606 147.127C182.698 148.647 179.277 149.829 175.54 150.605C171.804 151.38 167.823 151.735 163.827 151.649C159.831 151.562 155.897 151.036 152.249 150.1C148.602 149.164 145.313 147.837 142.569 146.194C139.826 144.551 137.683 142.625 136.261 140.526C134.84 138.427 134.168 136.195 134.285 133.958L138.217 134.044Z"/>
</mask>
<path fill-rule="evenodd" clip-rule="evenodd" d="M171.25 131.484C174.715 129.809 178.785 130.269 181.679 132.663L188.812 138.561C188.48 139.216 188.062 139.857 187.561 140.479C186.215 142.152 184.29 143.656 181.898 144.906C179.506 146.157 176.693 147.129 173.619 147.767C170.546 148.405 167.272 148.697 163.985 148.626C160.698 148.554 157.462 148.122 154.462 147.352C151.462 146.582 148.757 145.49 146.5 144.139C144.244 142.788 142.481 141.204 141.312 139.477C140.868 138.821 140.513 138.15 140.248 137.468L146.09 132.847C149.679 130.008 154.511 129.389 158.578 131.248L159.5 131.669C163.201 133.36 167.51 133.293 171.25 131.484ZM138.217 134.044L143.656 129.741C148.447 125.952 154.896 125.125 160.325 127.606L161.247 128.028C163.873 129.228 166.931 129.179 169.585 127.896C174.468 125.536 180.203 126.184 184.283 129.558L191.093 135.189L195.148 135.277C195.031 137.514 194.128 139.711 192.491 141.744C190.854 143.778 188.514 145.606 185.606 147.127C182.698 148.647 179.277 149.829 175.54 150.605C171.804 151.38 167.823 151.735 163.827 151.649C159.831 151.562 155.897 151.036 152.249 150.1C148.602 149.164 145.313 147.837 142.569 146.194C139.826 144.551 137.683 142.625 136.261 140.526C134.84 138.427 134.168 136.195 134.285 133.958L138.217 134.044Z" fill="#6A13A0"/>
<path d="M181.679 132.663L179.13 135.746L179.13 135.746L181.679 132.663ZM171.25 131.484L169.509 127.883L169.509 127.883L171.25 131.484ZM188.812 138.561L192.38 140.369L193.825 137.517L191.361 135.479L188.812 138.561ZM187.561 140.479L190.677 142.988L190.677 142.988L187.561 140.479ZM181.898 144.906L180.045 141.361L180.045 141.361L181.898 144.906ZM173.619 147.767L172.806 143.85L172.806 143.85L173.619 147.767ZM163.985 148.626L164.072 144.627L163.985 148.626ZM154.462 147.352L153.468 151.226L153.468 151.226L154.462 147.352ZM141.312 139.477L144.624 137.235L144.624 137.235L141.312 139.477ZM140.248 137.468L137.767 134.331L135.452 136.162L136.519 138.914L140.248 137.468ZM146.09 132.847L148.571 135.985L146.09 132.847ZM158.578 131.248L156.915 134.886L156.915 134.886L158.578 131.248ZM159.5 131.669L161.162 128.031L161.162 128.031L159.5 131.669ZM138.217 134.044L138.13 138.043L139.569 138.074L140.698 137.181L138.217 134.044ZM143.656 129.741L141.174 126.604L141.174 126.604L143.656 129.741ZM160.325 127.606L158.662 131.244L158.663 131.244L160.325 127.606ZM161.247 128.028L162.91 124.389L162.91 124.389L161.247 128.028ZM169.585 127.896L171.326 131.498V131.498L169.585 127.896ZM184.283 129.558L186.832 126.475L186.832 126.475L184.283 129.558ZM191.093 135.189L188.544 138.272L189.616 139.158L191.006 139.188L191.093 135.189ZM195.148 135.277L199.143 135.486L199.358 131.367L195.235 131.278L195.148 135.277ZM192.491 141.744L189.376 139.236V139.236L192.491 141.744ZM185.606 147.127L183.753 143.582L183.753 143.582L185.606 147.127ZM175.54 150.605L176.354 154.521L176.354 154.521L175.54 150.605ZM163.827 151.649L163.914 147.65H163.914L163.827 151.649ZM152.249 150.1L151.255 153.974L152.249 150.1ZM142.569 146.194L140.514 149.626L140.514 149.626L142.569 146.194ZM136.261 140.526L139.573 138.283L139.573 138.283L136.261 140.526ZM134.285 133.958L134.372 129.959L130.493 129.875L130.29 133.75L134.285 133.958ZM184.229 129.581C180.091 126.159 174.338 125.549 169.509 127.883L172.991 135.086C175.092 134.07 177.479 134.38 179.13 135.746L184.229 129.581ZM191.361 135.479L184.229 129.581L179.13 135.746L186.262 141.644L191.361 135.479ZM185.243 136.753C185.048 137.14 184.786 137.548 184.446 137.971L190.677 142.988C191.339 142.166 191.912 141.292 192.38 140.369L185.243 136.753ZM184.446 137.971C183.521 139.119 182.071 140.302 180.045 141.361L183.751 148.451C186.51 147.009 188.908 145.184 190.677 142.988L184.446 137.971ZM180.045 141.361C178.029 142.415 175.575 143.276 172.806 143.85L174.432 151.683C177.811 150.982 180.983 149.898 183.751 148.451L180.045 141.361ZM172.806 143.85C170.042 144.424 167.071 144.692 164.072 144.627L163.898 152.625C167.473 152.702 171.049 152.386 174.432 151.683L172.806 143.85ZM164.072 144.627C161.072 144.562 158.142 144.166 155.456 143.477L153.468 151.226C156.782 152.077 160.324 152.547 163.898 152.625L164.072 144.627ZM155.456 143.477C152.765 142.787 150.429 141.829 148.555 140.708L144.445 147.571C147.085 149.151 150.159 150.377 153.468 151.226L155.456 143.477ZM148.555 140.708C146.673 139.58 145.392 138.369 144.624 137.235L138 141.72C139.57 144.039 141.815 145.996 144.445 147.571L148.555 140.708ZM144.624 137.235C144.336 136.809 144.125 136.403 143.978 136.022L136.519 138.914C136.9 139.897 137.4 140.834 138 141.72L144.624 137.235ZM143.608 129.71L137.767 134.331L142.73 140.605L148.571 135.985L143.608 129.71ZM160.24 127.61C154.767 125.109 148.34 125.967 143.608 129.71L148.571 135.985C151.018 134.049 154.254 133.67 156.915 134.886L160.24 127.61ZM161.162 128.031L160.24 127.61L156.915 134.886L157.837 135.307L161.162 128.031ZM169.509 127.883C166.815 129.185 163.754 129.215 161.162 128.031L157.837 135.307C162.648 137.506 168.204 137.4 172.991 135.086L169.509 127.883ZM140.698 137.181L146.137 132.878L141.174 126.604L135.735 130.906L140.698 137.181ZM146.137 132.878C149.785 129.993 154.64 129.406 158.662 131.244L161.987 123.968C155.153 120.845 147.108 121.91 141.174 126.604L146.137 132.878ZM158.663 131.244L159.585 131.666L162.91 124.389L161.987 123.968L158.663 131.244ZM159.585 131.666C163.32 133.373 167.625 133.286 171.326 131.498L167.844 124.295C166.236 125.072 164.426 125.082 162.91 124.389L159.585 131.666ZM171.326 131.498C174.845 129.796 178.898 130.295 181.734 132.64L186.832 126.475C181.509 122.073 174.091 121.275 167.844 124.295L171.326 131.498ZM181.734 132.64L188.544 138.272L193.642 132.107L186.832 126.475L181.734 132.64ZM195.235 131.278L191.179 131.19L191.006 139.188L195.061 139.276L195.235 131.278ZM195.607 144.253C197.681 141.677 198.975 138.696 199.143 135.486L191.153 135.069C191.088 136.332 190.576 137.746 189.376 139.236L195.607 144.253ZM187.459 150.672C190.734 148.96 193.548 146.81 195.607 144.253L189.376 139.236C188.16 140.745 186.295 142.253 183.753 143.582L187.459 150.672ZM176.354 154.521C180.395 153.682 184.175 152.388 187.459 150.672L183.753 143.582C181.221 144.905 178.159 145.975 174.727 146.688L176.354 154.521ZM163.74 155.648C168.025 155.74 172.307 155.361 176.354 154.521L174.727 146.688C171.3 147.4 167.622 147.73 163.914 147.65L163.74 155.648ZM151.255 153.974C155.217 154.991 159.457 155.555 163.74 155.648L163.914 147.65C160.205 147.569 156.576 147.081 153.243 146.225L151.255 153.974ZM140.514 149.626C143.641 151.498 147.299 152.959 151.255 153.974L153.243 146.225C149.905 145.369 146.985 144.176 144.624 142.762L140.514 149.626ZM132.949 142.769C134.771 145.46 137.397 147.759 140.514 149.626L144.624 142.762C142.255 141.344 140.594 139.79 139.573 138.283L132.949 142.769ZM130.29 133.75C130.122 136.969 131.107 140.048 132.949 142.769L139.573 138.283C138.573 136.805 138.214 135.421 138.28 134.167L130.29 133.75ZM138.304 130.044L134.372 129.959L134.198 137.957L138.13 138.043L138.304 130.044Z" fill="#590E87" mask="url(#path-12-inside-1_70_938)"/>
<path d="M157.49 40.4866C126.324 40.6218 96.4877 53.1322 74.5452 75.2659C52.6027 97.3995 40.3515 127.343 40.4866 158.51C40.6218 189.676 53.1322 219.512 75.2658 241.455C97.3994 263.397 127.343 275.649 158.51 275.513L158.357 240.259C136.54 240.354 115.58 231.778 100.086 216.418C84.5926 201.059 75.8353 180.173 75.7407 158.357C75.6461 136.54 84.2219 115.58 99.5816 100.086C114.941 84.5926 135.827 75.8353 157.643 75.7407L157.49 40.4866Z" fill="#6A13A0"/>
<path d="M165.376 224.006C147.871 224.068 131.057 217.174 118.635 204.839C106.212 192.505 99.1983 175.74 99.1361 158.235C99.0739 140.729 105.968 123.915 118.303 111.493C130.637 99.0702 147.402 92.0564 164.907 91.9942L164.978 111.796C152.724 111.84 140.989 116.749 132.355 125.445C123.72 134.141 118.894 145.91 118.938 158.164C118.981 170.418 123.891 182.153 132.587 190.787C141.283 199.422 153.052 204.248 165.306 204.204L165.376 224.006Z" fill="#6A13A0"/>
<path d="M315.265 158C315.265 244.855 244.855 315.265 158 315.265C71.1451 315.265 0.735229 244.855 0.735229 158C0.735229 71.1452 71.1451 0.735352 158 0.735352C244.855 0.735352 315.265 71.1452 315.265 158ZM16.4617 158C16.4617 236.17 79.8306 299.538 158 299.538C236.169 299.538 299.538 236.17 299.538 158C299.538 79.8307 236.169 16.4618 158 16.4618C79.8306 16.4618 16.4617 79.8307 16.4617 158Z" fill="#6A13A0"/>
</svg>
