<svg width="372" height="300" viewBox="0 0 372 300" fill="none" xmlns="http://www.w3.org/2000/svg">
<g clip-path="url(#clip0_77_443)">
<path d="M0.5 20C0.5 8.9543 9.45431 0 20.5 0H351.5C362.546 0 371.5 8.95431 371.5 20V280C371.5 291.046 362.546 300 351.5 300H20.5C9.4543 300 0.5 291.046 0.5 280V20Z" fill="white"/>
<path opacity="0.25" d="M152.438 157V142.455H158.716C159.795 142.455 160.74 142.668 161.55 143.094C162.359 143.52 162.989 144.119 163.439 144.891C163.889 145.662 164.114 146.564 164.114 147.597C164.114 148.638 163.882 149.54 163.418 150.303C162.958 151.065 162.312 151.652 161.479 152.064C160.65 152.476 159.682 152.682 158.574 152.682H154.824V149.614H157.778C158.242 149.614 158.638 149.533 158.964 149.372C159.296 149.206 159.549 148.972 159.724 148.669C159.904 148.366 159.994 148.009 159.994 147.597C159.994 147.18 159.904 146.825 159.724 146.531C159.549 146.233 159.296 146.006 158.964 145.849C158.638 145.688 158.242 145.608 157.778 145.608H156.386V157H152.438ZM164.762 157V142.455H168.711V148.136H173.939V142.455H177.887V157H173.939V151.318H168.711V157H164.762ZM193.053 149.727C193.053 151.347 192.739 152.713 192.109 153.825C191.479 154.933 190.629 155.774 189.559 156.347C188.489 156.915 187.296 157.199 185.98 157.199C184.654 157.199 183.456 156.912 182.386 156.339C181.32 155.762 180.473 154.919 179.843 153.811C179.218 152.698 178.906 151.337 178.906 149.727C178.906 148.108 179.218 146.744 179.843 145.636C180.473 144.524 181.32 143.683 182.386 143.115C183.456 142.542 184.654 142.256 185.98 142.256C187.296 142.256 188.489 142.542 189.559 143.115C190.629 143.683 191.479 144.524 192.109 145.636C192.739 146.744 193.053 148.108 193.053 149.727ZM188.991 149.727C188.991 148.856 188.875 148.122 188.643 147.526C188.416 146.924 188.077 146.47 187.627 146.162C187.182 145.849 186.633 145.693 185.98 145.693C185.326 145.693 184.775 145.849 184.325 146.162C183.88 146.47 183.541 146.924 183.309 147.526C183.082 148.122 182.968 148.856 182.968 149.727C182.968 150.598 183.082 151.335 183.309 151.936C183.541 152.533 183.88 152.987 184.325 153.3C184.775 153.607 185.326 153.761 185.98 153.761C186.633 153.761 187.182 153.607 187.627 153.3C188.077 152.987 188.416 152.533 188.643 151.936C188.875 151.335 188.991 150.598 188.991 149.727ZM192.999 145.636V142.455H205.641V145.636H201.266V157H197.374V145.636H192.999ZM219.735 149.727C219.735 151.347 219.42 152.713 218.79 153.825C218.16 154.933 217.31 155.774 216.24 156.347C215.17 156.915 213.977 157.199 212.661 157.199C211.335 157.199 210.137 156.912 209.067 156.339C208.002 155.762 207.154 154.919 206.524 153.811C205.899 152.698 205.587 151.337 205.587 149.727C205.587 148.108 205.899 146.744 206.524 145.636C207.154 144.524 208.002 143.683 209.067 143.115C210.137 142.542 211.335 142.256 212.661 142.256C213.977 142.256 215.17 142.542 216.24 143.115C217.31 143.683 218.16 144.524 218.79 145.636C219.42 146.744 219.735 148.108 219.735 149.727ZM215.672 149.727C215.672 148.856 215.556 148.122 215.324 147.526C215.097 146.924 214.758 146.47 214.309 146.162C213.863 145.849 213.314 145.693 212.661 145.693C212.007 145.693 211.456 145.849 211.006 146.162C210.561 146.47 210.222 146.924 209.99 147.526C209.763 148.122 209.649 148.856 209.649 149.727C209.649 150.598 209.763 151.335 209.99 151.936C210.222 152.533 210.561 152.987 211.006 153.3C211.456 153.607 212.007 153.761 212.661 153.761C213.314 153.761 213.863 153.607 214.309 153.3C214.758 152.987 215.097 152.533 215.324 151.936C215.556 151.335 215.672 150.598 215.672 149.727Z" fill="#590E87"/>
<path d="M371.5 251.635H0.5V251.837H371.5V251.635Z" fill="#EBEBEB"/>
<path d="M334.326 264.592H309.751V264.793H334.326V264.592Z" fill="#EBEBEB"/>
<path d="M246.265 266.782H239.817V266.983H246.265V266.782Z" fill="#EBEBEB"/>
<path d="M309.009 257.119H294.77V257.32H309.009V257.119Z" fill="#EBEBEB"/>
<path d="M71.4723 258.472H39.4253V258.673H71.4723V258.472Z" fill="#EBEBEB"/>
<path d="M82.7804 258.472H78.0836V258.673H82.7804V258.472Z" fill="#EBEBEB"/>
<path d="M167.561 261.87H98.0508V262.071H167.561V261.87Z" fill="#EBEBEB"/>
<path d="M176.354 215.722H33.0812C31.9588 215.72 30.883 215.234 30.0901 214.372C29.2971 213.51 28.8518 212.342 28.8518 211.124V-7.44235C28.8615 -8.6534 29.3112 -9.81138 30.1031 -10.6647C30.895 -11.5181 31.9652 -11.9979 33.0812 -12H176.354C177.478 -12 178.555 -11.5156 179.35 -10.6533C180.144 -9.79102 180.591 -8.62153 180.591 -7.40208V211.124C180.591 212.343 180.144 213.513 179.35 214.375C178.555 215.237 177.478 215.722 176.354 215.722ZM33.0812 -11.839C32.008 -11.8368 30.9794 -11.3727 30.2213 -10.5484C29.4631 -9.72408 29.0373 -8.607 29.0373 -7.44235V211.124C29.0373 212.288 29.4631 213.406 30.2213 214.23C30.9794 215.054 32.008 215.518 33.0812 215.52H176.354C177.428 215.518 178.457 215.054 179.217 214.23C179.976 213.406 180.403 212.289 180.405 211.124V-7.44235C180.403 -8.60774 179.976 -9.7248 179.217 -10.5489C178.457 -11.3729 177.428 -11.8368 176.354 -11.839H33.0812Z" fill="#EBEBEB"/>
<path d="M336.856 215.722H193.576C192.453 215.72 191.376 215.234 190.582 214.373C189.788 213.511 189.341 212.343 189.339 211.124V-7.44235C189.351 -8.65414 189.802 -9.8121 190.595 -10.6652C191.388 -11.5184 192.459 -11.9979 193.576 -12H336.856C337.971 -11.9958 339.039 -11.515 339.829 -10.6619C340.62 -9.80878 341.068 -8.65201 341.078 -7.44235V211.124C341.078 212.34 340.634 213.507 339.842 214.369C339.051 215.231 337.977 215.717 336.856 215.722ZM193.576 -11.839C192.502 -11.8368 191.473 -11.3729 190.713 -10.5489C189.954 -9.7248 189.526 -8.60774 189.524 -7.44235V211.124C189.526 212.289 189.954 213.406 190.713 214.23C191.473 215.054 192.502 215.518 193.576 215.52H336.856C337.93 215.518 338.959 215.054 339.719 214.23C340.478 213.406 340.905 212.289 340.907 211.124V-7.44235C340.905 -8.60774 340.478 -9.7248 339.719 -10.5489C338.959 -11.3729 337.93 -11.8368 336.856 -11.839H193.576Z" fill="#EBEBEB"/>
<path d="M102.577 26.6193H75.1229V37.6913H102.577V26.6193Z" fill="#F5F5F5"/>
<path d="M311.606 229.209C311.606 228.968 312.348 204.73 316.006 200.897C319.664 197.064 323.589 200.76 323.76 200.897L324.123 200.422C324.079 200.382 319.501 196.323 315.605 200.422C311.71 204.521 311.064 228.147 311.034 229.161L311.606 229.209Z" fill="#E0E0E0"/>
<path d="M311.294 233.969C311.294 233.679 313.78 204.875 304.082 192.805L303.651 193.207C313.186 205.085 310.752 233.622 310.73 233.912L311.294 233.969Z" fill="#E0E0E0"/>
<path d="M311.65 230.925L312.222 230.884C312.222 230.554 310.322 198.135 317.416 191.041L317.037 190.582C309.736 197.878 311.569 229.572 311.65 230.925Z" fill="#E0E0E0"/>
<path d="M310.73 230.909H311.294C311.294 230.015 311.064 209.014 305.566 205.592C305.043 205.224 304.447 204.998 303.827 204.932C303.208 204.867 302.583 204.963 302.004 205.213C298.68 206.703 297.033 213.129 296.966 213.403L297.515 213.564C297.515 213.499 299.155 207.162 302.219 205.785C302.717 205.572 303.254 205.492 303.786 205.551C304.318 205.61 304.829 205.806 305.276 206.123C310.5 209.36 310.723 230.691 310.73 230.909Z" fill="#E0E0E0"/>
<path d="M312.882 230.925L313.453 230.884C313.453 230.723 312.622 214.288 316.711 208.499C317.698 207.089 318.773 206.421 319.909 206.51C322.587 206.711 324.836 210.963 324.858 211.011L325.348 210.705C325.251 210.52 322.936 206.123 319.953 205.874C318.618 205.769 317.371 206.518 316.243 208.096C312.029 214.095 312.83 230.24 312.882 230.925Z" fill="#E0E0E0"/>
<path d="M311.969 233.155C312.08 231.545 314.64 194.037 310.136 187.426L309.684 187.788C314.062 194.23 311.435 232.72 311.405 233.107L311.969 233.155Z" fill="#E0E0E0"/>
<path d="M300.78 209.006C300.78 209.006 303.481 210.093 302.679 212.646C301.878 215.198 293.33 219.394 293.33 219.394C293.33 219.394 289.746 215.834 293.033 210.045C296.32 204.255 300.706 207.186 300.78 209.006Z" fill="#EBEBEB"/>
<path d="M312.526 204.15C312.526 204.15 309.654 204.022 309.484 206.711C309.313 209.401 315.724 216.849 315.724 216.849C315.724 216.849 320.287 215.061 319.308 208.338C318.328 201.614 313.246 202.492 312.526 204.15Z" fill="#EBEBEB"/>
<path d="M314.967 191.267C314.967 191.267 313.045 191.041 313.201 189.777C313.357 188.513 320.658 185.243 324.969 190.518C324.969 190.518 322.209 195.663 318.224 195.728C314.24 195.792 314.967 191.267 314.967 191.267Z" fill="#EBEBEB"/>
<path d="M311.398 188.183C311.398 188.183 313.134 189.101 313.624 187.933C314.114 186.765 309.498 179.8 303.273 181.813C303.273 181.813 303.102 187.756 306.456 190.107C309.81 192.458 311.398 188.183 311.398 188.183Z" fill="#EBEBEB"/>
<path d="M320.473 207.983C320.473 207.983 319.152 206.824 320.577 206.26C322.001 205.697 329.02 205.85 329.095 213.387C329.095 213.387 320.933 214.86 319.916 211.994C318.9 209.127 320.473 207.983 320.473 207.983Z" fill="#EBEBEB"/>
<path d="M303.822 191.073C303.822 191.073 305.143 189.914 303.718 189.35C302.294 188.786 295.274 188.948 295.2 196.485C295.2 196.485 303.362 197.958 304.379 195.083C305.395 192.209 303.822 191.073 303.822 191.073Z" fill="#EBEBEB"/>
<path d="M308.141 197.145C308.141 197.145 308.252 195.736 307.206 196.291C306.16 196.847 302.501 201.123 306.293 205.149C306.293 205.149 311.391 201.05 310.471 198.916C309.55 196.783 308.141 197.145 308.141 197.145Z" fill="#EBEBEB"/>
<path d="M321.66 199.158C321.66 199.158 320.866 198.031 322.024 197.894C323.181 197.757 328.382 199.255 327.173 204.891C327.173 204.891 320.844 204.368 320.569 202.033C320.295 199.697 321.66 199.158 321.66 199.158Z" fill="#EBEBEB"/>
<path d="M300.276 251.804H321.994L324.339 225.997H297.931L300.276 251.804Z" fill="#F0F0F0"/>
<path d="M296.773 228.847H325.496V223.154H296.773V228.847Z" fill="#E6E6E6"/>
<path d="M133.548 48.8439H46.697V251.796H133.548V48.8439Z" fill="#E0E0E0"/>
<path d="M132.064 48.8439H45.213V251.796H132.064V48.8439Z" fill="#EBEBEB"/>
<path d="M128.354 52.8701H48.9229V251.796H128.354V52.8701Z" fill="#E0E0E0"/>
<path d="M78.4471 69.1038H62.9689V85.9011H78.4471V69.1038Z" fill="#F0F0F0"/>
<path d="M96.3739 69.1038H80.8958V85.9011H96.3739V69.1038Z" fill="#F0F0F0"/>
<path d="M114.308 69.1038H98.8299V85.9011H114.308V69.1038Z" fill="#F0F0F0"/>
<path d="M78.4471 88.6388H62.9689V105.436H78.4471V88.6388Z" fill="#F0F0F0"/>
<path d="M96.3739 88.6388H80.8958V105.436H96.3739V88.6388Z" fill="#F0F0F0"/>
<path d="M114.308 88.6388H98.8299V105.436H114.308V88.6388Z" fill="#F0F0F0"/>
<path d="M122.025 133.096C122.025 133.733 121.851 134.356 121.524 134.886C121.198 135.415 120.735 135.828 120.192 136.072C119.65 136.316 119.053 136.379 118.478 136.255C117.902 136.131 117.373 135.824 116.958 135.374C116.543 134.923 116.26 134.349 116.146 133.724C116.031 133.1 116.09 132.452 116.315 131.863C116.539 131.275 116.92 130.772 117.408 130.418C117.896 130.064 118.47 129.875 119.057 129.875C119.844 129.875 120.599 130.214 121.155 130.819C121.712 131.423 122.025 132.242 122.025 133.096Z" fill="#F0F0F0"/>
<path d="M186 288C265.455 288 329.866 283.919 329.866 278.885C329.866 273.85 265.455 269.769 186 269.769C106.545 269.769 42.1336 273.85 42.1336 278.885C42.1336 283.919 106.545 288 186 288Z" fill="#F5F5F5"/>
<path d="M244.528 40.4535C250.555 37.7441 253.417 30.2452 250.921 23.7041C248.424 17.1631 241.514 14.057 235.487 16.7663C229.459 19.4757 226.597 26.9747 229.094 33.5157C231.59 40.0567 238.5 43.1629 244.528 40.4535Z" fill="#BA68C8"/>
<path opacity="0.5" d="M244.528 40.4535C250.555 37.7441 253.417 30.2452 250.921 23.7041C248.424 17.1631 241.514 14.057 235.487 16.7663C229.459 19.4757 226.597 26.9747 229.094 33.5157C231.59 40.0567 238.5 43.1629 244.528 40.4535Z" fill="white"/>
<path d="M236.805 31.7808C236.748 31.7818 236.691 31.7684 236.64 31.7419C236.588 31.7154 236.543 31.6763 236.508 31.6278C236.447 31.5444 236.419 31.4383 236.431 31.3327C236.442 31.2271 236.491 31.1306 236.567 31.0641L239.632 28.4149V21.8603C239.634 21.7541 239.673 21.6529 239.742 21.5778C239.812 21.5028 239.905 21.4597 240.003 21.4576C240.101 21.4576 240.195 21.5001 240.265 21.5756C240.335 21.6511 240.374 21.7535 240.374 21.8603V28.6082C240.373 28.6677 240.361 28.7264 240.338 28.7805C240.315 28.8346 240.281 28.8829 240.24 28.9222L237.035 31.6922C236.97 31.7509 236.889 31.7823 236.805 31.7808Z" fill="#BA68C8"/>
<path opacity="0.5" d="M244.082 39.2855C249.515 36.8434 252.095 30.0839 249.844 24.188C247.594 18.292 241.365 15.4922 235.932 17.9343C230.499 20.3765 227.92 27.136 230.17 33.0319C232.42 38.9279 238.649 41.7277 244.082 39.2855Z" fill="white"/>
<path d="M304.92 64.8601H177.37V164.267H304.92V64.8601Z" fill="#BA68C8"/>
<path d="M303.444 64.8601H175.886V164.267H303.444V64.8601Z" fill="#BA68C8"/>
<path opacity="0.5" d="M303.436 64.8601H175.886V164.267H303.436V64.8601Z" fill="white"/>
<path d="M189.383 92.3832L192.44 82.9377L195.253 92.3832" stroke="#BA68C8" stroke-linecap="round" stroke-linejoin="round"/>
<path d="M191.483 88.4536H194.08" stroke="#BA68C8" stroke-linecap="round" stroke-linejoin="round"/>
<path d="M200.84 88.4536C200.84 88.4536 195.646 88.1396 197.805 91.2156C199.964 94.2916 201.723 88.4456 201.723 88.4456C201.723 88.4456 201.233 91.6262 202.695 92.1094" stroke="#BA68C8" stroke-linecap="round" stroke-linejoin="round"/>
<path d="M190.066 98.6479V109.591C190.066 109.591 195.453 108.955 196.329 105.871C197.204 102.787 191.483 103.173 191.483 103.173C191.483 103.173 195.253 102.368 195.253 100.025C195.253 97.6816 188.5 98.6559 188.5 98.6559" stroke="#BA68C8" stroke-linecap="round" stroke-linejoin="round"/>
<path d="M198.384 101.845C198.384 101.845 198.48 110.115 198.384 109.583C198.287 109.052 199.556 104.913 202.205 106.362C204.854 107.812 202.687 111.298 199.556 109.583" stroke="#BA68C8" stroke-linecap="round" stroke-linejoin="round"/>
<path d="M194.08 117.442C194.08 117.442 192.418 114.89 189.384 118.288C186.349 121.686 190.652 127.637 193.494 125.825C196.336 124.013 196.425 123.28 196.425 123.28" stroke="#BA68C8" stroke-linecap="round" stroke-linejoin="round"/>
<path d="M201.908 122.322C201.908 122.322 197.983 119.987 198.384 124.021C198.784 128.055 203.407 125.72 203.392 125.084" stroke="#BA68C8" stroke-linecap="round" stroke-linejoin="round"/>
<path d="M190.266 133.901V143.822C190.266 143.822 196.202 144.836 196.425 139.417C196.648 133.998 191.342 132.17 189.19 132.734" stroke="#BA68C8" stroke-linecap="round" stroke-linejoin="round"/>
<path d="M203.392 134.006V143.129C203.392 143.129 202.487 139.417 200.142 140.166C197.798 140.915 198.874 144.442 202.368 143.894" stroke="#BA68C8" stroke-linecap="round" stroke-linejoin="round"/>
<path d="M214.827 75.9241C214.827 75.9241 216.882 115.381 214.827 146.431" stroke="#BA68C8" stroke-linecap="round" stroke-linejoin="round"/>
<path d="M222.655 128.804H291.846" stroke="#BA68C8" stroke-linecap="round" stroke-linejoin="round"/>
<path d="M226.372 126.34C226.372 126.34 238.682 110.831 242.392 108.786C246.102 106.741 258.412 124.552 258.412 124.552" stroke="#BA68C8" stroke-linecap="round" stroke-linejoin="round"/>
<path d="M259.458 121.67C259.458 121.67 270.269 108.786 273.764 108.625C277.258 108.464 290.051 124.56 290.051 124.56" stroke="#BA68C8" stroke-linecap="round" stroke-linejoin="round"/>
<path d="M253.225 113.762C253.225 113.762 259.161 106.789 264.006 113.44" stroke="#BA68C8" stroke-linecap="round" stroke-linejoin="round"/>
<path d="M253.225 110.074L251.392 105.96" stroke="#BA68C8" stroke-linecap="round" stroke-linejoin="round"/>
<path d="M258.619 106.966C258.743 105.262 258.743 103.549 258.619 101.845" stroke="#BA68C8" stroke-linecap="round" stroke-linejoin="round"/>
<path d="M264.006 106.966L266.537 103.415" stroke="#BA68C8" stroke-linecap="round" stroke-linejoin="round"/>
<path d="M267.62 88.4537H290.051C290.051 88.4537 288.055 82.3419 285.599 82.3178C283.143 82.2936 282.289 83.7833 282.289 83.7833C282.289 83.7833 280.026 79.5316 277.474 79.5316C274.921 79.5316 273.704 85.2891 273.704 85.2891C272.534 85.2693 271.375 85.5449 270.319 86.094C269.263 86.6432 268.339 87.451 267.62 88.4537Z" stroke="#BA68C8" stroke-linecap="round" stroke-linejoin="round"/>
<path d="M245.746 97.585H223.627C223.627 97.585 223.241 95.0324 226.372 95.4592C226.372 95.4592 226.372 90.193 230.869 90.2815C232.113 90.2541 233.344 90.5753 234.441 91.2143C235.538 91.8533 236.464 92.7883 237.131 93.9293C237.131 93.9293 237.791 92.4959 240.003 92.3832C242.214 92.2705 242.399 95.2499 242.399 95.2499C242.399 95.2499 245.746 95.6686 246.621 97.585" stroke="#BA68C8" stroke-linecap="round" stroke-linejoin="round"/>
<path d="M257.247 130.286L243.98 147.494" stroke="#BA68C8" stroke-linecap="round" stroke-linejoin="round"/>
<path d="M258.723 130.286L260.415 147.494" stroke="#BA68C8" stroke-linecap="round" stroke-linejoin="round"/>
<path opacity="0.5" d="M299.726 157.994V68.8862L179.589 68.8862V157.994H299.726Z" fill="white"/>
<path opacity="0.1" d="M262.033 159.282V147.494H260.942L260.831 144.377H260.942V143.451H260.853L260.638 140.303L259.243 140.367V143.524H259.154V144.458H259.295L259.406 147.51H257.684L257.914 145.609H258.048L258.159 144.692H258.07L258.345 141.551L256.965 141.358L256.49 144.466H256.401L256.289 145.384H256.423L256.171 147.502H254.338L253.982 144.361H254.115L254.041 143.411H253.952L253.492 140.295L252.401 140.44V140.279L251.014 140.343V143.5H250.925V144.434H251.066L251.177 147.486H250.584V159.274H213.454V155.023H194.088V159.629H175.886V164.259H303.436V159.274L262.033 159.282ZM252.713 147.494L252.646 145.69L252.854 147.494H252.713Z" fill="black"/>
<path d="M208.801 158.977H191.483V162.818H208.801V158.977Z" fill="#263238"/>
<path d="M193.509 157.245H206.776C207.059 157.245 207.331 157.367 207.531 157.585C207.732 157.802 207.844 158.097 207.844 158.405V161.32H192.44V158.405C192.44 158.097 192.553 157.802 192.753 157.585C192.954 157.367 193.226 157.245 193.509 157.245Z" fill="#263238"/>
<path opacity="0.2" d="M208.801 158.977H191.483V162.818H208.801V158.977Z" fill="white"/>
<path d="M248.681 143.406L247.51 143.458L247.989 156.186L249.161 156.134L248.681 143.406Z" fill="#BA68C8"/>
<path opacity="0.9" d="M248.681 143.406L247.51 143.458L247.989 156.186L249.161 156.134L248.681 143.406Z" fill="white"/>
<path d="M247.467 140.987L247.482 143.612L248.736 143.556L248.55 140.939L247.467 140.987Z" fill="#BA68C8"/>
<path opacity="0.2" d="M247.467 140.987L247.482 143.612L248.736 143.556L248.55 140.939L247.467 140.987Z" fill="black"/>
<path d="M248.793 143.395L247.407 143.456L247.434 144.18L248.82 144.119L248.793 143.395Z" fill="#BA68C8"/>
<path d="M252.974 144.341L251.812 144.176L250.29 156.807L251.452 156.972L252.974 144.341Z" fill="white"/>
<path d="M252.149 141.744L251.748 144.345L252.995 144.522L253.225 141.897L252.149 141.744Z" fill="#BA68C8"/>
<path opacity="0.2" d="M252.149 141.744L251.748 144.345L252.995 144.522L253.225 141.897L252.149 141.744Z" fill="black"/>
<path d="M252.617 144.148L251.243 143.952L251.156 144.67L252.53 144.865L252.617 144.148Z" fill="#BA68C8"/>
<path d="M255.101 143.404L253.93 143.456L254.407 156.184L255.578 156.133L255.101 143.404Z" fill="#BA68C8"/>
<path opacity="0.9" d="M255.101 143.404L253.93 143.456L254.407 156.184L255.578 156.133L255.101 143.404Z" fill="white"/>
<path d="M253.885 140.987L253.9 143.612L255.162 143.556L254.976 140.939L253.885 140.987Z" fill="#263238"/>
<path opacity="0.2" d="M253.885 140.987L253.9 143.612L255.162 143.556L254.976 140.939L253.885 140.987Z" fill="black"/>
<path d="M255.213 143.393L253.827 143.455L253.854 144.179L255.24 144.118L255.213 143.393Z" fill="#263238"/>
<path d="M249.732 143.387L248.569 143.544L250.014 156.186L251.177 156.03L249.732 143.387Z" fill="white"/>
<path d="M248.335 141.092L248.551 143.709L249.797 143.54L249.411 140.947L248.335 141.092Z" fill="#263238"/>
<path opacity="0.2" d="M248.335 141.092L248.551 143.709L249.797 143.54L249.411 140.947L248.335 141.092Z" fill="black"/>
<path d="M249.838 143.368L248.461 143.553L248.543 144.272L249.92 144.087L249.838 143.368Z" fill="#263238"/>
<path d="M256.163 149.297H246.621V162.825H256.163V149.297Z" fill="#263238"/>
<path opacity="0.2" d="M256.164 149.297H248.335V162.825H256.164V149.297Z" fill="white"/>
<path d="M169.609 160.901H305.262V166.022C305.262 166.291 305.163 166.549 304.988 166.74C304.812 166.93 304.575 167.037 304.327 167.037H170.544C170.296 167.037 170.058 166.93 169.883 166.74C169.708 166.549 169.609 166.291 169.609 166.022V160.901Z" fill="#BA68C8"/>
<path opacity="0.2" d="M169.609 160.901H305.262V166.022C305.262 166.291 305.163 166.549 304.988 166.74C304.812 166.93 304.575 167.037 304.327 167.037H170.544C170.296 167.037 170.058 166.93 169.883 166.74C169.708 166.549 169.609 166.291 169.609 166.022V160.901Z" fill="white"/>
<path opacity="0.4" d="M169.609 160.901H297.842V166.022C297.842 166.291 297.743 166.549 297.568 166.74C297.392 166.93 297.155 167.037 296.907 167.037H170.544C170.296 167.037 170.058 166.93 169.883 166.74C169.708 166.549 169.609 166.291 169.609 166.022V160.901Z" fill="white"/>
<path d="M77.4603 268.562H72.4444L73.9803 261.033L75.405 254.124L81.6897 253.077L79.4563 261.274L77.4603 268.562Z" fill="#E4897B"/>
<path opacity="0.2" d="M79.397 261.443L73.9359 261.177L75.3827 254.196L81.6749 253.117L79.397 261.443Z" fill="black"/>
<path d="M67.0723 268.562H62.0564L63.5923 261.033L65.017 254.124L71.3017 253.077L69.0683 261.274L67.0723 268.562Z" fill="#E4897B"/>
<path opacity="0.2" d="M69.0089 261.443L63.5478 261.177L64.9947 254.196L71.2869 253.117L69.0089 261.443Z" fill="black"/>
<path d="M57.9902 124.673C57.9902 124.673 57.7379 125.261 57.3298 126.348C55.4451 131.413 50.266 147.437 52.2026 165.958C53.3453 176.925 64.5198 196.67 66.1819 207.419C68.1185 219.949 63.0506 242.045 64.3491 258.214L72.3331 258.971L74.7371 257.36L81.5784 256.257C81.5784 256.257 99.3864 212.307 99.0599 197.112C98.8076 185.179 81.5784 142.396 81.5784 142.396L83.2182 126.582" fill="#BA68C8"/>
<path opacity="0.6" d="M81.5784 256.225L75.9911 257.127L74.7371 257.328L72.6892 258.729L72.3331 258.971L64.3491 258.214C63.0506 242.021 68.1185 219.949 66.1819 207.419C64.5198 196.67 53.3453 176.925 52.2026 165.958C50.266 147.437 55.4451 131.413 57.3298 126.348C57.7379 125.261 57.9902 124.673 57.9902 124.673L83.2182 126.549L81.5784 142.364C81.5784 142.364 98.8076 185.147 99.0599 197.08C99.3864 212.275 81.5784 256.225 81.5784 256.225Z" fill="white"/>
<path opacity="0.1" d="M75.9911 257.127L74.7372 257.328L72.6892 258.729C73.9952 253.793 85.2439 211.059 85.4442 201.654C85.6668 191.661 72.5631 156.198 72.5631 156.198L75.9244 149.611L75.4421 159.637C75.4421 159.637 87.8409 187.216 88.7981 201.654C89.7404 215.496 77.0299 254.011 75.9911 257.127Z" fill="black"/>
<path d="M71.0272 268.328C71.0272 267.724 77.8387 268.199 77.8387 268.199C77.8387 268.199 82.0236 272.813 86.0898 273.836C90.1559 274.858 87.878 277.516 83.3369 277.516H72.1031C68.8828 277.532 70.8936 274.552 71.0272 268.328Z" fill="#263238"/>
<path d="M78.603 269.149C78.579 269.14 78.5582 269.123 78.5436 269.101C78.5398 269.082 78.5398 269.063 78.5436 269.045C78.5392 269.026 78.5392 269.007 78.5436 268.988C78.5396 268.962 78.5396 268.934 78.5436 268.908C78.5436 268.819 79.1447 267.112 80.0647 266.693C80.2018 266.624 80.3512 266.587 80.5025 266.587C80.6538 266.587 80.8033 266.624 80.9403 266.693C81.2519 266.846 81.4003 267.056 81.3929 267.313C81.3929 267.7 80.8809 268.119 80.3319 268.408C80.8322 268.321 81.345 268.382 81.8159 268.586C81.9045 268.638 81.9825 268.709 82.045 268.795C82.1075 268.88 82.1533 268.979 82.1794 269.085C82.233 269.221 82.2461 269.371 82.2168 269.516C82.1876 269.66 82.1174 269.791 82.0162 269.89C81.8409 270.023 81.6284 270.086 81.4152 270.067C80.4357 269.941 79.484 269.63 78.603 269.149ZM79.2263 269.028C80.228 269.487 81.4523 269.89 81.7936 269.608C81.7936 269.608 81.9049 269.504 81.8381 269.214C81.823 269.158 81.7974 269.106 81.7629 269.062C81.7284 269.018 81.6858 268.982 81.6378 268.956C81.3862 268.834 81.1115 268.779 80.8364 268.795C80.2935 268.809 79.7537 268.888 79.2263 269.028ZM80.1612 267.056C79.624 267.443 79.2157 268.008 78.9963 268.666C80.0054 268.247 80.9774 267.676 80.9922 267.345C80.9922 267.241 80.8438 267.144 80.7548 267.096C80.6541 267.047 80.5458 267.02 80.4357 267.015C80.3427 267.01 80.2496 267.024 80.1612 267.056Z" fill="#BA68C8"/>
<path d="M72.333 256.088L83.5966 254.413L82.6542 258.971L73.357 260.235L72.333 256.088Z" fill="#BA68C8"/>
<path d="M60.6392 268.328C60.6392 267.724 67.4507 268.199 67.4507 268.199C67.4507 268.199 71.6356 272.813 75.7018 273.836C79.7679 274.858 77.49 277.516 72.9489 277.516H61.7151C58.4948 277.532 60.5056 274.552 60.6392 268.328Z" fill="#263238"/>
<path d="M68.215 269.149C68.191 269.14 68.1702 269.123 68.1556 269.101C68.1518 269.082 68.1518 269.063 68.1556 269.045C68.1512 269.026 68.1512 269.007 68.1556 268.988C68.1516 268.962 68.1516 268.934 68.1556 268.908C68.1556 268.819 68.7567 267.112 69.6767 266.693C69.8138 266.624 69.9632 266.587 70.1145 266.587C70.2658 266.587 70.4153 266.624 70.5523 266.693C70.8639 266.846 71.0123 267.056 71.0049 267.313C71.0049 267.7 70.4929 268.119 69.9439 268.408C70.4442 268.321 70.957 268.382 71.4279 268.586C71.5165 268.638 71.5945 268.709 71.657 268.795C71.7195 268.88 71.7653 268.979 71.7914 269.085C71.845 269.221 71.8581 269.371 71.8288 269.516C71.7996 269.66 71.7294 269.791 71.6282 269.89C71.4529 270.023 71.2404 270.086 71.0272 270.067C70.0477 269.941 69.096 269.63 68.215 269.149ZM68.8383 269.028C69.84 269.487 71.0643 269.89 71.4056 269.608C71.4056 269.608 71.5169 269.504 71.4501 269.214C71.435 269.158 71.4094 269.106 71.3749 269.062C71.3404 269.018 71.2978 268.982 71.2498 268.956C70.9982 268.834 70.7235 268.779 70.4484 268.795C69.9055 268.809 69.3657 268.888 68.8383 269.028ZM69.7732 267.056C69.236 267.443 68.8277 268.008 68.6083 268.666C69.6174 268.247 70.5894 267.676 70.6042 267.345C70.6042 267.241 70.4558 267.144 70.3668 267.096C70.2661 267.047 70.1578 267.02 70.0477 267.015C69.9547 267.01 69.8616 267.024 69.7732 267.056Z" fill="#BA68C8"/>
<path d="M62.7019 256.088L74.7371 254.413L73.728 258.971L63.8001 260.235L62.7019 256.088Z" fill="#BA68C8"/>
<path d="M107.637 122.628L113.677 119.359C113.677 119.359 114.078 117.056 114.716 116.275C115.354 115.493 121.609 117.676 121.706 118.183C121.454 119.965 120.954 121.694 120.222 123.312C119.754 123.948 114.538 122.604 114.538 122.604L109.129 125.631L107.637 122.628Z" fill="#E4897B"/>
<path d="M113.722 123.836C113.722 123.836 98.726 132.202 94.9418 129.279C92.879 127.669 92.4413 121.227 92.4784 115.671C92.4784 111.105 92.8494 107.191 92.8494 107.191L96.2032 103.407L101.301 97.6654C104.217 100.033 97.6427 119.238 99.0748 122.161C100.507 125.084 112.431 118.9 112.431 118.9L113.722 123.836Z" fill="#BA68C8"/>
<mask id="mask0_77_443" style="mask-type:luminance" maskUnits="userSpaceOnUse" x="92" y="97" width="22" height="33">
<path d="M113.722 123.836C113.722 123.836 98.726 132.202 94.9418 129.279C92.879 127.669 92.4413 121.227 92.4784 115.671C92.4784 111.105 92.8494 107.191 92.8494 107.191L96.2032 103.407L101.301 97.6654C104.217 100.033 97.6427 119.238 99.0748 122.161C100.507 125.084 112.431 118.9 112.431 118.9L113.722 123.836Z" fill="white"/>
</mask>
<g mask="url(#mask0_77_443)">
<path opacity="0.2" d="M92.241 116.21C92.241 111.926 92.5898 108.254 92.5898 108.254L95.7433 104.703C95.721 107.175 95.3277 113.279 92.241 116.21Z" fill="black"/>
</g>
<path d="M99.4903 61.2767C99.4903 61.2767 106.584 59.94 111.31 66.2692C116.037 72.5984 105.998 82.7524 105.998 82.7524C106.241 84.6938 105.989 86.6707 105.268 88.467C104.547 90.2634 103.385 91.8103 101.909 92.9387C96.7523 96.9649 81.7787 87.7932 79.7901 79.6845C77.8016 71.5757 90.5491 64.0467 94.1404 64.699C97.7317 65.3512 99.4903 61.2767 99.4903 61.2767Z" fill="#263238"/>
<path d="M105.864 81.8425C105.864 81.8425 108.661 92.6408 99.6535 94.4928" stroke="#263238" stroke-width="0.5" stroke-linecap="round" stroke-linejoin="round"/>
<path d="M89.7701 118.449L96.5446 119.544C96.5446 119.544 98.318 117.982 99.2677 117.764C100.217 117.547 104.143 123.401 103.935 123.868C102.739 125.16 101.367 126.246 99.8687 127.089C99.1267 127.298 95.5058 122.757 95.5058 122.757L89.3843 121.863L89.7701 118.449Z" fill="#E4897B"/>
<path d="M59.4519 121.114L58.2722 124.794L82.0162 131.598L83.4111 127.258L59.4519 121.114Z" fill="#263238"/>
<path d="M67.5973 122.453L66.4291 122.083L64.6944 128.538L65.8626 128.907L67.5973 122.453Z" fill="#BA68C8"/>
<path d="M77.6476 126.084L72.4367 124.666L71.4464 128.955L76.6573 130.372L77.6476 126.084Z" fill="white"/>
<path d="M82.2649 126.102L81.0967 125.732L79.3609 132.186L80.5291 132.556L82.2649 126.102Z" fill="#BA68C8"/>
<path opacity="0.6" d="M67.5973 122.453L66.4291 122.083L64.6944 128.538L65.8626 128.907L67.5973 122.453Z" fill="white"/>
<path opacity="0.6" d="M82.2649 126.102L81.0967 125.732L79.3609 132.186L80.5291 132.556L82.2649 126.102Z" fill="white"/>
<path d="M101.412 97.746C100.383 99.1954 99.4259 100.572 98.5405 101.877C95.0827 106.902 92.6045 110.469 90.7346 113.343C88.6107 116.445 86.7717 119.765 85.2438 123.256C84.628 124.665 84.0195 126.211 83.3443 128.023L59.4667 121.114C63.9707 103.012 67.8142 93.5104 69.7434 88.7756C69.76 88.7232 69.7799 88.6721 69.8028 88.6226C70.3905 87.2006 71.4258 86.0524 72.7231 85.3839C74.0203 84.7154 75.4946 84.5704 76.8815 84.9749C78.5955 85.4822 80.5915 86.1103 82.4613 86.7947C85.912 88.1906 89.269 89.8453 92.508 91.7469C95.6053 93.5112 98.5811 95.5161 101.412 97.746Z" fill="#BA68C8"/>
<path d="M80.2947 86.6417C80.2947 86.6417 82.8843 85.5546 84.3312 84.9104C85.7781 84.2663 93.4874 88.9366 93.5023 90.4907C93.5171 92.0449 91.2763 96.208 91.2763 96.208C91.2763 96.208 84.3905 94.8874 80.2947 86.6417Z" fill="#BA68C8"/>
<path opacity="0.2" d="M80.2947 86.6417C80.2947 86.6417 82.8843 85.5546 84.3312 84.9104C85.7781 84.2663 93.4874 88.9366 93.5023 90.4907C93.5171 92.0449 91.2763 96.208 91.2763 96.208C91.2763 96.208 84.3905 94.8874 80.2947 86.6417Z" fill="black"/>
<path d="M85.9784 96.82C81.9642 91.8597 82.2684 88.4616 82.2684 88.4616C87.5292 88.2683 89.2803 80.8843 89.2803 80.8843L93.8362 87.2054C93.0444 87.9085 92.3005 88.6728 91.6102 89.4923C88.6422 93.0434 90.1262 94.5089 90.1262 94.5089C89.54 97.3675 85.9784 96.82 85.9784 96.82Z" fill="#E4897B"/>
<path opacity="0.2" d="M93.8733 87.2054C93.0815 87.9085 92.3376 88.6728 91.6473 89.4923C89.5548 86.3116 89.3248 80.8843 89.3248 80.8843L93.8733 87.2054Z" fill="black"/>
<path d="M102.302 66.1807C107.89 69.4016 108.09 73.6936 105.434 80.1677C102.117 88.2684 97.7985 92.8905 91.6399 87.1894C83.2701 79.443 93.0348 60.8258 102.302 66.1807Z" fill="#E4897B"/>
<path d="M101.991 77.7439C101.995 78.9082 102.127 80.0679 102.384 81.1984C102.097 81.3544 101.776 81.4212 101.457 81.3914C101.137 81.3615 100.831 81.2362 100.574 81.0293L101.991 77.7439Z" fill="#DE5753"/>
<path d="M98.8224 75.2718C98.585 75.7791 98.1472 76.0771 97.8356 75.8838C97.5239 75.6906 97.4646 75.1672 97.702 74.6599C97.9395 74.1526 98.3698 73.8546 98.6815 74.0559C98.9931 74.2572 99.0525 74.7726 98.8224 75.2718Z" fill="#263238"/>
<path d="M98.5405 74.0074L99.7499 74.1282C99.7499 74.1282 98.8224 74.7805 98.5405 74.0074Z" fill="#263238"/>
<path d="M104.64 78.3237C104.41 78.8229 103.965 79.1289 103.653 78.9276C103.341 78.7263 103.282 78.2109 103.519 77.7117C103.757 77.2124 104.195 76.9064 104.499 77.0997C104.803 77.2929 104.87 77.8164 104.64 78.3237Z" fill="#263238"/>
<path d="M104.38 77.0594L105.582 77.1802C105.582 77.1802 104.64 77.8244 104.38 77.0594Z" fill="#263238"/>
<path d="M100.818 71.0603C100.406 70.7469 99.9322 70.5404 99.4344 70.4566C98.9366 70.3729 98.4277 70.4141 97.9469 70.5772" stroke="#263238" stroke-width="0.72468" stroke-linecap="round" stroke-linejoin="round"/>
<path d="M105.003 73.146C105.436 73.2633 105.839 73.4849 106.182 73.7943C106.525 74.1038 106.799 74.4932 106.984 74.9336" stroke="#263238" stroke-width="0.72468" stroke-linecap="round" stroke-linejoin="round"/>
<path d="M91.1947 72.8641C91.1947 72.8641 96.2477 69.3935 97.7391 65.327C97.7391 65.327 111.206 66.8167 105.768 79.314C105.768 79.314 112.164 69.1197 102.681 63.33C93.1981 57.5404 85.7706 72.7997 88.4938 80.2401C88.4938 80.2079 88.056 75.0463 91.1947 72.8641Z" fill="#263238"/>
<path d="M102.325 64.86C102.325 64.86 103.186 68.9828 97.4944 72.1071" stroke="#263238" stroke-width="0.5" stroke-linecap="round" stroke-linejoin="round"/>
<path d="M90.8088 72.0266L93.0719 77.3412C93.0719 77.3412 92.0035 80.7071 89.8071 80.9487L88.4419 74.9657C88.4419 74.9657 86.7946 83.4288 93.4207 88.5984C100.047 93.7681 104.744 82.9618 104.744 82.9618C104.744 82.9618 103.119 79.3623 101.776 78.7342C100.433 78.1062 96.7077 77.4942 95.0605 76.858C93.4133 76.2219 90.8088 72.0266 90.8088 72.0266Z" fill="#BA68C8"/>
<path d="M91.4766 74.6679C91.6191 74.3032 91.6938 73.9116 91.6963 73.5155C91.6988 73.1194 91.6291 72.7266 91.4911 72.3599C91.3532 71.9932 91.1498 71.6597 90.8926 71.3786C90.6354 71.0975 90.3296 70.8744 89.9926 70.7222C88.1673 69.9169 85.4441 73.2989 89.2951 76.7132C89.8813 77.2044 90.5565 76.7534 91.4766 74.6679Z" fill="#E4897B"/>
<path d="M102.302 66.1806C102.302 66.1806 98.8892 74.1283 91.3654 72.0105C82.2684 69.4498 76.8073 77.4861 82.172 84.2985C82.172 84.2985 76.5179 77.7036 78.8849 72.1635C81.2519 66.6235 90.1485 63.1207 90.1485 63.1207C90.1485 63.1207 91.2837 57.6048 98.7408 59.5535C102.941 60.6486 102.302 66.1806 102.302 66.1806Z" fill="#263238"/>
<path d="M84.346 84.9105C84.346 84.9105 84.5167 92.0208 88.5606 92.5039C92.6045 92.9871 93.5171 90.4908 93.5171 90.4908L93.5691 96.514C93.5691 96.514 92.0851 102.215 85.459 97.9151C78.8329 93.6152 80.3095 86.6418 80.3095 86.6418L84.346 84.9105Z" fill="#BA68C8"/>
<path opacity="0.2" d="M90.7123 113.344C88.5884 116.445 86.7494 119.765 85.2215 123.256C80.9773 122.628 72.9859 120.961 69.8621 117.249C65.5288 112.071 69.6618 92.6167 69.6618 92.6167L73.1269 94.2916C73.1269 94.2916 72.8969 105.122 77.2747 109.124C80.8363 112.385 88.1227 113.166 90.7123 113.344Z" fill="black"/>
<path d="M72.563 86.2391C68.111 88.8803 67.8142 112.522 72.3998 116.758C77.3193 121.315 93.5468 123.465 93.5468 123.465L94.8082 118.231C94.8082 118.231 78.1874 115.268 76.5773 111.21C74.9671 107.151 74.8929 92.9548 75.4049 90.0479C75.9169 87.141 74.7742 84.9347 72.563 86.2391Z" fill="#BA68C8"/>
<path d="M264.333 195.567C264.333 195.567 258.397 203.949 262.656 206.131C266.915 208.314 270.41 196.742 270.41 196.742L264.333 195.567Z" fill="#EBB376"/>
<path d="M268.518 186.717C265.142 190.236 263.383 196.283 263.383 196.283L270.573 200.269V187.619L268.518 186.717Z" fill="#BA68C8"/>
<path opacity="0.6" d="M268.518 186.717C265.142 190.236 263.383 196.283 263.383 196.283L270.573 200.269V187.619L268.518 186.717Z" fill="white"/>
<path d="M292.41 184.736H280.041C276.746 184.736 274.076 187.635 274.076 191.21V202.274C274.076 205.85 276.746 208.748 280.041 208.748H292.41C295.705 208.748 298.376 205.85 298.376 202.274V191.21C298.376 187.635 295.705 184.736 292.41 184.736Z" fill="#263238"/>
<path d="M284.011 232.793C287.216 257.707 297.619 273.53 297.619 273.53L302.197 272.008C302.197 272.008 291.535 254.293 292.596 229.942L284.011 232.793Z" fill="#EBB376"/>
<path d="M266.611 231.376C264.845 256.459 271.902 274.327 271.902 274.327L276.673 273.9C276.673 273.9 269.742 254.1 275.567 230.578L266.611 231.376Z" fill="#EBB376"/>
<path d="M271.375 272.105L276.235 271.775C276.315 271.765 276.396 271.79 276.459 271.845C276.523 271.899 276.565 271.978 276.576 272.064L277.051 276.228C277.06 276.336 277.049 276.445 277.018 276.549C276.987 276.652 276.937 276.748 276.871 276.83C276.805 276.912 276.725 276.979 276.635 277.026C276.544 277.073 276.446 277.1 276.346 277.105C274.647 277.194 273.831 277.105 271.694 277.266C269.798 277.476 267.892 277.541 265.988 277.46C264.177 277.274 264.4 275.334 265.179 275.245C267.196 274.828 269.08 273.851 270.647 272.411C270.854 272.227 271.108 272.12 271.375 272.105Z" fill="#263238"/>
<path d="M269.06 272.829C268.984 272.755 268.929 272.659 268.901 272.552C268.874 272.445 268.875 272.332 268.904 272.225C268.911 272.155 268.935 272.088 268.972 272.03C269.01 271.973 269.06 271.926 269.119 271.895C269.638 271.638 270.915 272.467 271.063 272.556C271.091 272.585 271.107 272.626 271.108 272.668C271.104 272.689 271.095 272.708 271.082 272.724C271.069 272.74 271.052 272.751 271.033 272.757C270.662 272.884 270.279 272.968 269.891 273.006C269.603 273.063 269.306 272.999 269.06 272.829ZM269.208 272.121C269.178 272.134 269.151 272.156 269.132 272.184C269.112 272.213 269.1 272.246 269.097 272.282C269.082 272.349 269.083 272.418 269.1 272.485C269.116 272.551 269.149 272.611 269.193 272.66C269.408 272.87 269.98 272.853 270.744 272.66C270.225 272.346 269.483 272 269.208 272.145V272.121Z" fill="#BA68C8"/>
<path d="M270.959 272.765C270.514 272.523 269.809 271.581 269.876 271.066C269.89 270.973 269.932 270.887 269.994 270.821C270.057 270.756 270.138 270.715 270.225 270.704C270.302 270.69 270.381 270.694 270.456 270.717C270.532 270.739 270.602 270.778 270.663 270.832C271.123 271.259 271.1 272.636 271.108 272.676C271.101 272.712 271.082 272.743 271.056 272.765C271.049 272.769 271.041 272.77 271.034 272.77C271.026 272.77 271.018 272.769 271.011 272.765C271.004 272.771 270.995 272.774 270.985 272.774C270.976 272.774 270.967 272.771 270.959 272.765ZM270.262 270.937C270.121 270.937 270.084 271.05 270.076 271.114C270.189 271.664 270.482 272.15 270.9 272.483C270.925 271.964 270.795 271.45 270.529 271.018C270.501 270.988 270.467 270.964 270.43 270.949C270.393 270.934 270.353 270.927 270.314 270.929L270.262 270.937Z" fill="#BA68C8"/>
<path d="M297.345 272.105L302.205 271.775C302.285 271.765 302.366 271.79 302.43 271.845C302.493 271.899 302.535 271.978 302.546 272.064L303.021 276.228C303.03 276.336 303.019 276.445 302.988 276.549C302.957 276.652 302.907 276.748 302.841 276.83C302.776 276.912 302.695 276.979 302.605 277.026C302.514 277.073 302.416 277.1 302.316 277.105C300.617 277.194 299.801 277.105 297.664 277.266C295.768 277.476 293.862 277.541 291.958 277.46C290.147 277.274 290.37 275.334 291.149 275.245C293.167 274.828 295.05 273.851 296.618 272.411C296.824 272.227 297.079 272.12 297.345 272.105Z" fill="#263238"/>
<path d="M295.03 272.829C294.954 272.755 294.899 272.659 294.871 272.552C294.844 272.445 294.845 272.332 294.874 272.225C294.881 272.155 294.905 272.088 294.942 272.03C294.98 271.973 295.03 271.926 295.089 271.895C295.608 271.638 296.885 272.467 297.033 272.556C297.061 272.585 297.077 272.626 297.078 272.668C297.074 272.689 297.065 272.708 297.052 272.724C297.039 272.74 297.022 272.751 297.003 272.757C296.632 272.884 296.249 272.968 295.861 273.006C295.573 273.063 295.276 272.999 295.03 272.829ZM295.178 272.121C295.148 272.134 295.121 272.156 295.102 272.184C295.082 272.213 295.07 272.246 295.067 272.282C295.052 272.349 295.053 272.418 295.07 272.485C295.087 272.551 295.119 272.611 295.163 272.66C295.378 272.87 295.95 272.853 296.714 272.66C296.195 272.346 295.453 272 295.178 272.145V272.121Z" fill="#BA68C8"/>
<path d="M296.929 272.765C296.484 272.523 295.779 271.581 295.846 271.066C295.86 270.973 295.901 270.887 295.964 270.821C296.027 270.756 296.108 270.715 296.195 270.704C296.272 270.69 296.351 270.694 296.426 270.717C296.502 270.739 296.572 270.778 296.632 270.832C297.092 271.259 297.07 272.636 297.078 272.676C297.07 272.712 297.052 272.743 297.026 272.765C297.019 272.769 297.011 272.77 297.003 272.77C296.996 272.77 296.988 272.769 296.981 272.765C296.974 272.771 296.964 272.774 296.955 272.774C296.946 272.774 296.937 272.771 296.929 272.765ZM296.232 270.937C296.091 270.937 296.054 271.05 296.046 271.114C296.159 271.664 296.452 272.15 296.87 272.483C296.895 271.964 296.765 271.45 296.499 271.018C296.47 270.988 296.437 270.964 296.4 270.949C296.363 270.934 296.323 270.927 296.284 270.929L296.232 270.937Z" fill="#BA68C8"/>
<path d="M267.42 214.103C267.42 214.103 263.168 227.301 263.784 237.624L276.317 237.938C276.317 237.938 277.17 233.107 279.188 230.184C280.223 232.681 281.446 235.081 282.846 237.359L294.844 236.28C294.844 236.28 293.36 228.533 293.004 212.759L267.42 214.103Z" fill="#263238"/>
<path d="M267.271 215.078C267.271 215.078 270.766 194.399 268.518 186.717C268.518 186.717 270.84 183.947 278.646 183.246C286.452 182.546 290.199 184.35 290.199 184.35C290.199 184.35 293.227 199.295 292.989 213.709L267.271 215.078Z" fill="#BA68C8"/>
<path opacity="0.7" d="M267.271 215.078C267.271 215.078 270.766 194.399 268.518 186.717C268.518 186.717 270.84 183.947 278.646 183.246C286.452 182.546 290.199 184.35 290.199 184.35C290.199 184.35 293.227 199.295 292.989 213.709L267.271 215.078Z" fill="white"/>
<path d="M287.439 183.085C287.439 183.085 281.562 186.403 283.766 195.687C285.97 204.972 293.509 206.22 293.509 206.22L293.828 204.61C293.828 204.61 285.117 202.717 285.139 194.625C285.161 186.532 289.279 183.971 289.279 183.971C288.705 183.587 288.086 183.289 287.439 183.085Z" fill="#263238"/>
<path d="M274.298 183.955C272.428 185.936 272.31 198.796 268.592 205.503L268.095 204.175C268.095 204.175 270.373 199.947 270.521 195.687C270.67 191.428 270.922 187.144 271.931 184.623C272.453 184.353 272.994 184.13 273.549 183.955C273.795 183.891 274.052 183.891 274.298 183.955Z" fill="#263238"/>
<path opacity="0.2" d="M272.51 191.726C272.51 191.726 271.931 183.947 280.39 183.561C288.663 183.182 284.241 191.347 284.241 191.347L282.015 188.706L276.339 191.243L274.298 189.688L272.51 191.726Z" fill="black"/>
<path d="M272.072 189.68C272.072 189.68 273.267 182.224 280.546 181.966C287.825 181.709 285.265 189.672 285.265 189.672L282.349 187.257L276.22 190.759L273.994 188.303L272.072 189.68Z" fill="#BA68C8"/>
<path opacity="0.6" d="M272.072 189.68C272.072 189.68 273.267 182.224 280.546 181.966C287.825 181.709 285.265 189.672 285.265 189.672L282.349 187.257L276.22 190.759L273.994 188.303L272.072 189.68Z" fill="white"/>
<path d="M283.41 184.607L282.801 184.962L277.199 188.183L274.899 185.767C275.182 185.417 275.414 185.024 275.589 184.599C275.78 184.134 275.883 183.633 275.894 183.124C275.904 182.615 275.82 182.109 275.649 181.636C275.343 180.788 274.872 180.022 274.268 179.389L276.843 178.343L282.505 176.04C280.368 181.402 283.41 184.607 283.41 184.607Z" fill="#EBB376"/>
<path opacity="0.2" d="M283.41 184.607L282.801 184.962C280.171 184.644 277.684 183.496 275.649 181.66C275.343 180.812 274.872 180.046 274.268 179.414L276.843 178.367L282.505 176.064C280.368 181.402 283.41 184.607 283.41 184.607Z" fill="black"/>
<path d="M284.345 160.901C284.345 160.901 290.585 166.288 283.825 172.368C276.19 179.228 284.345 160.901 284.345 160.901Z" fill="#263238"/>
<path d="M269.549 170.266C269.965 175.42 272.733 181.08 276.687 181.789C283.944 183.077 286.749 181.523 287.454 175.685C288.122 170.427 286.282 162.173 280.279 160.748C274.276 159.323 268.971 163.124 269.549 170.266Z" fill="#EBB376"/>
<path d="M285.117 164.347C282.874 165.228 280.452 165.428 278.112 164.927C278.112 164.927 275.226 165.491 275.886 169.018C276.546 172.545 272.814 174.526 272.74 179.212C272.74 179.212 268.229 178.697 267.383 168.454C266.759 160.998 272.695 157.986 278.832 157.986C283.996 158.018 287.654 161.972 285.117 164.347Z" fill="#263238"/>
<path d="M280.427 171.595C280.464 172.247 280.813 172.77 281.206 172.738C281.599 172.706 281.889 172.158 281.859 171.506C281.83 170.854 281.473 170.338 281.08 170.363C280.687 170.387 280.397 170.91 280.427 171.595Z" fill="#263238"/>
<path d="M285.243 171.015C285.243 171.635 285.606 172.134 285.985 172.102C286.363 172.07 286.638 171.554 286.608 170.926C286.578 170.298 286.237 169.815 285.866 169.831C285.495 169.847 285.213 170.387 285.243 171.015Z" fill="#263238"/>
<path d="M281.993 168.164C282.036 168.124 282.067 168.071 282.082 168.011C282.087 167.972 282.085 167.932 282.076 167.894C282.067 167.856 282.051 167.82 282.028 167.788C282.006 167.757 281.979 167.73 281.947 167.711C281.915 167.691 281.881 167.678 281.844 167.673C281.417 167.602 280.981 167.643 280.572 167.793C280.162 167.943 279.792 168.198 279.492 168.535C279.441 168.591 279.413 168.666 279.413 168.744C279.413 168.823 279.441 168.898 279.492 168.954C279.546 169.003 279.614 169.031 279.685 169.031C279.756 169.031 279.824 169.003 279.878 168.954C280.12 168.687 280.418 168.489 280.746 168.377C281.075 168.265 281.424 168.241 281.763 168.309C281.809 168.308 281.854 168.293 281.894 168.268C281.935 168.243 281.968 168.207 281.993 168.164Z" fill="#263238"/>
<path d="M286.697 168.148C286.75 168.132 286.798 168.101 286.838 168.06C286.88 167.995 286.897 167.915 286.886 167.837C286.875 167.759 286.836 167.689 286.779 167.641C286.435 167.355 286.033 167.163 285.607 167.081C285.181 167 284.743 167.032 284.33 167.174C284.296 167.188 284.266 167.209 284.24 167.237C284.214 167.264 284.193 167.296 284.178 167.332C284.164 167.368 284.156 167.407 284.155 167.446C284.155 167.485 284.161 167.524 284.174 167.56C284.202 167.631 284.254 167.687 284.318 167.719C284.383 167.75 284.456 167.754 284.523 167.73C284.853 167.622 285.203 167.603 285.542 167.675C285.88 167.746 286.198 167.906 286.467 168.14C286.502 168.16 286.541 168.17 286.581 168.172C286.621 168.173 286.66 168.165 286.697 168.148Z" fill="#263238"/>
<path d="M284.337 171.828L283.848 174.647C284.495 174.782 285.164 174.703 285.769 174.421C285.151 173.658 284.666 172.779 284.337 171.828Z" fill="#D58745"/>
<path d="M287.58 173.02C287.58 173.02 287.023 173.479 284.835 173.02C283.796 172.787 282.059 174.88 278.899 175.323L273.66 172.352L278.045 175.742C277.998 177.374 277.723 178.99 277.229 180.533C275.359 179.437 273.616 178.104 272.035 176.563C272.035 176.563 276.383 181.765 279.871 182.087C286.267 182.667 287.847 179.534 287.847 179.534C288.619 178.109 288.641 174.896 287.58 173.02Z" fill="#BA68C8"/>
<path d="M274.951 173.302C274.951 173.302 273.601 170.178 272.124 171.232C270.648 172.287 271.108 177.562 273.348 177.481C275.589 177.401 276.02 174.969 274.951 173.302Z" fill="#EBB376"/>
<path d="M263.346 198.868C264.489 197.258 268.941 191.718 268.941 191.718C268.941 191.718 268.896 189.97 269.312 189.431C269.727 188.891 273.319 187.933 273.675 188.32C274.031 188.706 274.098 194.037 273.319 194.608C272.54 195.18 269.312 195.526 269.312 195.526C269.312 195.526 266.663 206.333 263.376 206.244C260.089 206.156 261.573 201.389 263.346 198.868Z" fill="#EBB376"/>
<path d="M294.814 194.665C294.814 194.665 296.974 205.608 293.828 206.8C290.682 207.992 290.622 195.172 290.622 195.172L294.814 194.665Z" fill="#EBB376"/>
<path d="M290.199 184.35C293.687 185.856 295.594 193.207 296.402 197.234L289.435 199.086C288.529 196.421 288.028 193.615 287.951 190.776C287.892 188.396 288.7 186.087 290.199 184.35Z" fill="#BA68C8"/>
<path opacity="0.6" d="M290.199 184.35C293.687 185.856 295.594 193.207 296.402 197.234L289.435 199.086C288.529 196.421 288.028 193.615 287.951 190.776C287.892 188.396 288.7 186.087 290.199 184.35Z" fill="white"/>
<path d="M292.848 199.641C291.713 198.031 287.261 192.491 287.261 192.491C287.261 192.491 287.298 190.743 286.89 190.204C286.482 189.664 282.876 188.698 282.52 189.093C282.163 189.487 282.097 194.81 282.876 195.382C283.655 195.953 286.89 196.291 286.89 196.291C286.89 196.291 289.539 207.098 292.826 207.009C296.113 206.921 294.644 202.194 292.848 199.641Z" fill="#EBB376"/>
<path d="M255.911 275.148H254.167V210.423H252.112V275.148H250.368L248.142 277.532H252.112H254.167H258.137L255.911 275.148Z" fill="#BA68C8"/>
<path d="M259.985 196.799H246.169V211.792H259.985V196.799Z" fill="#BA68C8"/>
<path opacity="0.6" d="M259.985 196.799H246.948V211.792H259.985V196.799Z" fill="white"/>
<path d="M179.048 189.769C179.048 189.769 175.419 194.761 173.646 194.326C171.872 193.892 166.879 190.083 166.879 190.083C166.877 189.605 166.75 189.138 166.514 188.734C166.277 188.331 165.941 188.009 165.543 187.804C164.104 186.934 158.784 188.682 158.635 190.22C158.487 191.758 158.821 193.98 164.705 192.176C165.098 192.056 171.049 198.401 173.445 199.118C175.842 199.834 180.865 195.341 180.865 195.341L179.048 189.769Z" fill="#EBB376"/>
<path d="M178.083 165.652C176.753 170.959 176.308 176.481 176.77 181.958C176.77 181.958 175.991 180.734 196.099 179.244C196.099 179.244 197.538 163.317 189.799 162.463C182.06 161.61 178.083 165.652 178.083 165.652Z" fill="#263238"/>
<path d="M203.37 184.736H191.001C187.706 184.736 185.035 187.635 185.035 191.21V202.274C185.035 205.85 187.706 208.748 191.001 208.748H203.37C206.665 208.748 209.336 205.85 209.336 202.274V191.21C209.336 187.635 206.665 184.736 203.37 184.736Z" fill="#263238"/>
<path d="M179.478 186.717C179.478 186.717 176.592 189.89 173.312 193.159L176.28 199.238C176.28 199.238 183.551 198.514 182.861 193.537C182.171 188.561 179.478 186.717 179.478 186.717Z" fill="#BA68C8"/>
<path opacity="0.6" d="M179.478 186.717C179.478 186.717 176.592 189.89 173.312 193.159L176.28 199.238C176.28 199.238 183.551 198.514 182.861 193.537C182.171 188.561 179.478 186.717 179.478 186.717Z" fill="white"/>
<path d="M190.519 232.793C193.724 257.707 204.127 273.53 204.127 273.53L208.705 272.008C208.705 272.008 198.043 254.293 199.104 229.942L190.519 232.793Z" fill="#EBB376"/>
<path d="M180.539 231.376C178.773 256.459 185.829 274.327 185.829 274.327L190.6 273.9C190.6 273.9 183.67 254.099 189.495 230.578L180.539 231.376Z" fill="#EBB376"/>
<path d="M185.303 272.104L190.163 271.774C190.243 271.765 190.324 271.79 190.387 271.844C190.451 271.898 190.493 271.977 190.504 272.064L190.979 276.227C190.988 276.336 190.977 276.445 190.946 276.548C190.915 276.652 190.865 276.748 190.799 276.83C190.733 276.912 190.653 276.978 190.563 277.026C190.472 277.073 190.374 277.1 190.274 277.105C188.575 277.194 187.759 277.105 185.622 277.266C183.726 277.476 181.819 277.541 179.916 277.459C178.105 277.274 178.328 275.333 179.107 275.245C181.124 274.828 183.008 273.851 184.575 272.41C184.782 272.227 185.036 272.12 185.303 272.104Z" fill="#263238"/>
<path d="M182.988 272.829C182.912 272.755 182.857 272.659 182.829 272.552C182.802 272.445 182.803 272.332 182.832 272.225C182.839 272.155 182.863 272.088 182.9 272.03C182.938 271.972 182.988 271.926 183.047 271.895C183.566 271.637 184.843 272.467 184.991 272.555C185.019 272.585 185.035 272.626 185.036 272.668C185.032 272.689 185.023 272.708 185.01 272.724C184.997 272.74 184.98 272.751 184.961 272.757C184.59 272.884 184.207 272.968 183.819 273.006C183.531 273.063 183.234 272.999 182.988 272.829ZM183.136 272.121C183.106 272.134 183.079 272.156 183.059 272.184C183.04 272.213 183.028 272.246 183.025 272.282C183.01 272.348 183.011 272.418 183.028 272.485C183.044 272.551 183.077 272.611 183.121 272.66C183.336 272.869 183.908 272.853 184.672 272.66C184.153 272.346 183.411 272 183.136 272.145V272.121Z" fill="#BA68C8"/>
<path d="M184.887 272.765C184.442 272.523 183.737 271.581 183.804 271.066C183.818 270.972 183.859 270.887 183.922 270.821C183.985 270.756 184.066 270.714 184.153 270.703C184.23 270.69 184.309 270.694 184.384 270.716C184.46 270.739 184.53 270.778 184.59 270.832C185.05 271.259 185.028 272.636 185.036 272.676C185.028 272.711 185.01 272.743 184.984 272.765C184.977 272.768 184.969 272.77 184.961 272.77C184.954 272.77 184.946 272.768 184.939 272.765C184.932 272.771 184.922 272.774 184.913 272.774C184.904 272.774 184.895 272.771 184.887 272.765ZM184.19 270.937C184.049 270.937 184.012 271.05 184.004 271.114C184.117 271.663 184.41 272.15 184.828 272.483C184.853 271.964 184.723 271.45 184.457 271.017C184.428 270.987 184.395 270.964 184.358 270.949C184.321 270.934 184.281 270.927 184.242 270.929L184.19 270.937Z" fill="#BA68C8"/>
<path d="M203.853 272.104L208.713 271.774C208.793 271.765 208.874 271.79 208.937 271.844C209.001 271.898 209.043 271.977 209.054 272.064L209.529 276.227C209.538 276.336 209.527 276.445 209.496 276.548C209.465 276.652 209.415 276.748 209.349 276.83C209.283 276.912 209.203 276.978 209.113 277.026C209.022 277.073 208.924 277.1 208.824 277.105C207.125 277.194 206.309 277.105 204.172 277.266C202.276 277.476 200.369 277.541 198.466 277.459C196.655 277.274 196.878 275.333 197.657 275.245C199.674 274.828 201.558 273.851 203.125 272.41C203.332 272.227 203.586 272.12 203.853 272.104Z" fill="#263238"/>
<path d="M201.538 272.829C201.462 272.755 201.407 272.659 201.379 272.552C201.352 272.445 201.353 272.332 201.382 272.225C201.389 272.155 201.413 272.088 201.45 272.03C201.488 271.972 201.538 271.926 201.597 271.895C202.116 271.637 203.393 272.467 203.541 272.555C203.569 272.585 203.585 272.626 203.586 272.668C203.582 272.689 203.573 272.708 203.56 272.724C203.547 272.74 203.53 272.751 203.511 272.757C203.14 272.884 202.757 272.968 202.369 273.006C202.081 273.063 201.784 272.999 201.538 272.829ZM201.686 272.121C201.656 272.134 201.629 272.156 201.61 272.184C201.59 272.213 201.578 272.246 201.575 272.282C201.56 272.348 201.561 272.418 201.578 272.485C201.594 272.551 201.627 272.611 201.671 272.66C201.886 272.869 202.458 272.853 203.222 272.66C202.703 272.346 201.961 272 201.686 272.145V272.121Z" fill="#BA68C8"/>
<path d="M203.437 272.765C202.992 272.523 202.287 271.581 202.354 271.066C202.368 270.972 202.409 270.887 202.472 270.821C202.535 270.756 202.616 270.714 202.703 270.703C202.78 270.69 202.859 270.694 202.934 270.716C203.01 270.739 203.08 270.778 203.14 270.832C203.6 271.259 203.578 272.636 203.586 272.676C203.578 272.711 203.56 272.743 203.534 272.765C203.527 272.768 203.519 272.77 203.511 272.77C203.504 272.77 203.496 272.768 203.489 272.765C203.481 272.771 203.472 272.774 203.463 272.774C203.454 272.774 203.445 272.771 203.437 272.765ZM202.74 270.937C202.599 270.937 202.562 271.05 202.554 271.114C202.667 271.663 202.96 272.15 203.378 272.483C203.403 271.964 203.272 271.45 203.007 271.017C202.978 270.987 202.945 270.964 202.908 270.949C202.871 270.934 202.831 270.927 202.792 270.929L202.74 270.937Z" fill="#BA68C8"/>
<path d="M179.411 211.18C179.411 211.18 181.726 194.399 179.478 186.717C179.478 186.717 181.8 183.947 189.606 183.246C197.412 182.546 201.159 184.35 201.159 184.35C202.583 193.449 203.256 202.668 203.17 211.897L179.411 211.18Z" fill="#BA68C8"/>
<path opacity="0.7" d="M179.411 211.18C179.411 211.18 181.726 194.399 179.478 186.717C179.478 186.717 181.8 183.947 189.606 183.246C197.412 182.546 201.159 184.35 201.159 184.35C202.583 193.449 203.256 202.668 203.17 211.897L179.411 211.18Z" fill="white"/>
<path d="M198.399 183.085C198.399 183.085 192.522 186.403 194.726 195.687C196.93 204.972 204.469 206.22 204.469 206.22L204.788 204.609C204.788 204.609 196.076 202.717 196.099 194.624C196.121 186.532 200.239 183.971 200.239 183.971C199.665 183.587 199.046 183.289 198.399 183.085Z" fill="#263238"/>
<path d="M185.258 183.955C183.388 185.936 183.27 198.795 179.552 205.503L179.055 204.174C179.055 204.174 181.333 199.947 181.481 195.687C181.63 191.427 181.882 187.144 182.891 184.623C183.413 184.353 183.954 184.13 184.509 183.955C184.755 183.891 185.012 183.891 185.258 183.955Z" fill="#263238"/>
<path opacity="0.2" d="M183.47 191.726C183.47 191.726 182.891 183.947 191.35 183.56C199.623 183.182 195.201 191.347 195.201 191.347L192.975 188.706L187.299 191.242L185.258 189.688L183.47 191.726Z" fill="black"/>
<path d="M183.032 189.68C183.032 189.68 184.227 182.224 191.506 181.966C198.785 181.708 196.225 189.672 196.225 189.672L193.309 187.256L187.18 190.759L184.954 188.303L183.032 189.68Z" fill="#BA68C8"/>
<path opacity="0.6" d="M183.032 189.68C183.032 189.68 184.227 182.224 191.506 181.966C198.785 181.708 196.225 189.672 196.225 189.672L193.309 187.256L187.18 190.759L184.954 188.303L183.032 189.68Z" fill="white"/>
<path d="M194.37 184.607L188.159 188.199L185.859 185.783C186.141 185.433 186.374 185.04 186.549 184.615C187.699 181.829 185.228 179.405 185.228 179.405L187.803 178.359L193.465 176.056C191.328 181.402 194.37 184.607 194.37 184.607Z" fill="#EBB376"/>
<path opacity="0.2" d="M192.678 178.367C192.678 178.367 190.452 184.148 186.549 184.623C187.699 181.837 185.228 179.413 185.228 179.413L187.803 178.367H192.678Z" fill="black"/>
<path d="M179.686 161.835C179.686 161.835 174.647 168.551 182.438 172.923C191.246 177.859 179.686 161.835 179.686 161.835Z" fill="#263238"/>
<path d="M195.98 167.568C196.581 172.698 194.986 178.842 191.261 180.452C184.427 183.391 181.385 182.522 179.545 176.982C177.868 171.997 178.061 163.502 183.626 160.724C189.191 157.946 195.142 160.458 195.98 167.568Z" fill="#EBB376"/>
<path d="M179.604 165.362C181.966 165.704 184.369 165.342 186.557 164.315C186.557 164.315 189.487 164.194 189.525 167.794C189.562 171.393 193.613 172.472 194.607 177.03C194.607 177.03 198.911 175.492 197.731 165.29C196.856 157.849 190.452 156.295 184.516 157.736C179.456 158.944 176.629 163.655 179.604 165.362Z" fill="#263238"/>
<path d="M185.599 171.353C185.696 171.997 185.459 172.585 185.065 172.649C184.672 172.714 184.286 172.239 184.19 171.595C184.093 170.95 184.331 170.371 184.724 170.298C185.117 170.226 185.503 170.701 185.599 171.353Z" fill="#263238"/>
<path d="M180.806 171.925C180.895 172.545 180.665 173.108 180.294 173.165C179.923 173.221 179.552 172.778 179.448 172.158C179.344 171.538 179.589 170.983 179.96 170.918C180.331 170.854 180.695 171.305 180.806 171.925Z" fill="#263238"/>
<path d="M183.403 168.374C183.353 168.34 183.312 168.293 183.284 168.237C183.263 168.162 183.268 168.081 183.3 168.01C183.332 167.94 183.387 167.885 183.455 167.858C183.859 167.688 184.294 167.626 184.724 167.678C185.154 167.73 185.567 167.894 185.926 168.156C185.982 168.204 186.019 168.273 186.029 168.35C186.038 168.427 186.02 168.504 185.978 168.567C185.932 168.624 185.868 168.662 185.798 168.672C185.729 168.683 185.658 168.665 185.599 168.623C185.309 168.42 184.978 168.298 184.634 168.265C184.29 168.233 183.944 168.292 183.626 168.438C183.547 168.447 183.468 168.424 183.403 168.374Z" fill="#263238"/>
<path d="M178.81 169.461C178.753 169.461 178.696 169.444 178.647 169.412C178.597 169.354 178.57 169.278 178.57 169.199C178.57 169.12 178.597 169.044 178.647 168.986C178.928 168.627 179.284 168.347 179.686 168.171C180.088 167.994 180.523 167.925 180.955 167.971C180.989 167.976 181.023 167.988 181.054 168.008C181.084 168.027 181.11 168.053 181.131 168.084C181.152 168.115 181.167 168.15 181.175 168.187C181.183 168.225 181.183 168.263 181.177 168.301C181.166 168.377 181.128 168.446 181.071 168.493C181.015 168.539 180.944 168.56 180.873 168.551C180.529 168.523 180.184 168.586 179.867 168.734C179.55 168.883 179.272 169.113 179.055 169.404C179.021 169.434 178.981 169.455 178.939 169.465C178.896 169.474 178.852 169.473 178.81 169.461Z" fill="#263238"/>
<path d="M181.838 172.513L182.862 175.154C182.259 175.437 181.592 175.516 180.947 175.379C181.402 174.49 181.703 173.519 181.838 172.513Z" fill="#D58745"/>
<path d="M178.899 174.429C178.899 174.429 179.537 174.751 181.578 173.761C182.55 173.294 184.65 174.944 187.796 174.646L192.337 170.54L188.716 174.864C189.084 176.445 189.669 177.957 190.452 179.349C192.055 177.845 193.49 176.143 194.726 174.276C194.726 174.276 191.498 180.372 188.152 181.483C182.016 183.536 179.856 180.839 179.856 180.839C178.884 179.647 178.231 176.506 178.899 174.429Z" fill="#BA68C8"/>
<path d="M191.291 171.788C191.291 171.788 192.033 168.422 193.65 169.106C195.268 169.791 195.876 175.065 193.65 175.5C191.424 175.935 190.578 173.664 191.291 171.788Z" fill="#EBB376"/>
<path d="M197.479 180.549C197.742 179.396 197.889 178.217 197.917 177.03C198.329 178.058 198.613 179.141 198.763 180.251C199.791 179.975 200.787 179.573 201.731 179.051C201.731 179.051 200.944 160.2 193.569 158.469C186.193 156.738 182.134 158.638 182.134 158.638C182.134 158.638 176.592 160.893 176.784 167.158C179.239 166.748 181.724 166.605 184.204 166.731L185.073 164.919L185.266 167.158L191.343 167.697C191.343 167.697 195.542 170.113 194.058 180.959C195.207 180.92 196.35 180.783 197.479 180.549Z" fill="#263238"/>
<path d="M198.77 190.494C198.77 190.494 192.493 196.839 190.979 197.241C189.465 197.644 183.017 195.067 183.017 195.067C183.017 195.067 182.127 194.214 180.428 195.067C177.608 196.493 175.234 197.87 176.339 199.955C177.445 202.041 178.387 203.104 178.921 202.983C179.456 202.862 183.336 201.235 183.982 199.166C183.982 199.166 188.508 201.356 191.402 201.219C194.296 201.082 200.232 196.742 200.232 196.742L198.77 190.494Z" fill="#EBB376"/>
<path d="M201.159 184.349C203.704 185.155 205.574 189.64 203.719 194.246C203.244 195.541 202.471 196.683 201.475 197.564C200.48 198.445 199.293 199.035 198.028 199.279L194.726 194.447C196.099 193.044 197.106 191.272 197.642 189.31C198.733 185.791 199.905 183.955 201.159 184.349Z" fill="#BA68C8"/>
<path opacity="0.6" d="M201.159 184.349C203.704 185.155 205.574 189.64 203.719 194.246C203.244 195.541 202.471 196.683 201.475 197.564C200.48 198.445 199.293 199.035 198.028 199.279L194.726 194.447C196.099 193.044 197.106 191.272 197.642 189.31C198.733 185.791 199.905 183.955 201.159 184.349Z" fill="white"/>
<path d="M179.708 208.748L179.419 211.18L203.192 211.502L203.185 209.465L179.708 208.748Z" fill="black"/>
<path d="M179.411 211.18C176.799 214.868 173.861 229.242 174.44 239.573C174.44 239.573 178.105 242.158 190.244 242.158C200.239 242.158 206.806 239.927 206.806 239.927C205.448 231.569 204.379 212.46 203.192 211.502L179.411 211.18Z" fill="#263238"/>
<path d="M184.516 209.441L184.435 210.673C184.431 210.743 184.439 210.814 184.461 210.881C184.482 210.947 184.516 211.009 184.559 211.061C184.603 211.114 184.656 211.156 184.714 211.186C184.773 211.216 184.837 211.233 184.902 211.236L187.996 211.333C187.996 211.333 188.093 210.27 188.137 209.594C188.14 209.523 188.13 209.452 188.108 209.385C188.086 209.319 188.051 209.257 188.007 209.205C187.963 209.153 187.91 209.11 187.851 209.08C187.792 209.05 187.728 209.033 187.662 209.03L185.013 208.95C184.888 208.945 184.766 208.994 184.673 209.086C184.58 209.177 184.524 209.305 184.516 209.441Z" fill="white"/>
<path d="M193.561 209.175V211.897L194.474 211.889V209.183L193.561 209.175Z" fill="#263238"/>
<path d="M182.127 208.829L181.927 211.502H181.044L181.266 208.748L182.127 208.829Z" fill="#263238"/>
<path d="M123.197 259.366C123.34 259.05 123.411 258.701 123.402 258.349C123.393 257.997 123.306 257.652 123.148 257.345C122.989 257.037 122.765 256.776 122.493 256.584C122.221 256.392 121.91 256.274 121.587 256.241C121.866 255.343 121.885 254.373 121.643 253.462C121.4 252.551 120.907 251.742 120.229 251.144C120.065 250.981 119.857 250.882 119.635 250.862C119.4 250.887 119.179 250.995 119.005 251.168L115.243 254.099C114.94 254.3 114.685 254.576 114.501 254.905C113.759 256.515 116.504 258.593 115.369 259.921C115.042 260.308 114.516 260.388 114.107 260.662C113.21 261.274 113.098 262.603 112.683 263.658C112.267 264.712 110.813 265.526 110.257 264.551C110.665 263.545 109.425 262.675 108.416 262.546C107.407 262.417 106.354 262.353 105.79 261.33C104.358 262.683 101.152 258.915 101.226 257.369C100.664 257.483 100.148 257.783 99.749 258.229C99.3504 258.674 99.0888 259.243 99.0004 259.857C98.8381 261.118 98.7983 262.395 98.8816 263.666C98.8445 266.146 98.1396 268.57 98.1396 271.042C98.1767 272.966 98.8817 275.108 100.484 275.873C101.293 276.182 102.152 276.308 103.007 276.243L121.505 276.115C121.949 276.143 122.392 276.063 122.804 275.881C123.642 275.406 123.82 274.214 123.894 273.2C124.226 268.835 124.557 264.474 124.889 260.114L123.197 259.366Z" fill="#BA68C8"/>
<path opacity="0.3" d="M123.197 259.366C123.34 259.05 123.411 258.701 123.402 258.349C123.393 257.997 123.306 257.652 123.148 257.345C122.989 257.037 122.765 256.776 122.493 256.584C122.221 256.392 121.91 256.274 121.587 256.241C121.866 255.343 121.885 254.373 121.643 253.462C121.4 252.551 120.907 251.742 120.229 251.144C120.065 250.981 119.857 250.882 119.635 250.862C119.4 250.887 119.179 250.995 119.005 251.168L115.243 254.099C114.94 254.3 114.685 254.576 114.501 254.905C113.759 256.515 116.504 258.593 115.369 259.921C115.042 260.308 114.516 260.388 114.107 260.662C113.21 261.274 113.098 262.603 112.683 263.658C112.267 264.712 110.813 265.526 110.257 264.551C110.665 263.545 109.425 262.675 108.416 262.546C107.407 262.417 106.354 262.353 105.79 261.33C104.358 262.683 101.152 258.915 101.226 257.369C100.664 257.483 100.148 257.783 99.749 258.229C99.3504 258.674 99.0888 259.243 99.0004 259.857C98.8381 261.118 98.7983 262.395 98.8816 263.666C98.8445 266.146 98.1396 268.57 98.1396 271.042C98.1767 272.966 98.8817 275.108 100.484 275.873C101.293 276.182 102.152 276.308 103.007 276.243L121.505 276.115C121.949 276.143 122.392 276.063 122.804 275.881C123.642 275.406 123.82 274.214 123.894 273.2C124.226 268.835 124.557 264.474 124.889 260.114L123.197 259.366Z" fill="white"/>
<path d="M124.28 238.164H95.5723L95.8097 241.312L95.9804 243.559L96.4181 249.405L96.663 252.771L96.9969 257.24L97.1379 259.156L97.1824 259.728L97.3531 261.983L97.5831 265.075L97.7241 266.991L97.8725 268.94L98.0431 271.187L98.1693 272.894L98.3102 274.81L98.3696 275.615H124.718L124.777 274.81L124.918 272.902L125.052 271.187L125.215 268.932L125.364 266.991L125.505 265.075L125.735 261.975L125.905 259.728L125.942 259.156L126.091 257.24L126.425 252.771L126.677 249.413L127.107 243.559L127.271 241.312L127.508 238.164H124.28ZM126.009 240.225L125.453 239.629H126.054L126.009 240.225ZM125.861 242.142L125.809 242.898L123.241 245.677L120.273 242.456L122.908 239.597H123.531L125.861 242.142ZM125.156 252.118L123.271 254.156L120.303 250.935L123.271 247.714L125.304 249.92L125.156 252.118ZM97.8354 249.977L99.8759 247.77L102.844 250.991L99.8759 254.212L97.9689 252.118L97.8354 249.977ZM122.321 246.756L119.353 249.977L116.385 246.756L119.353 243.535L122.321 246.756ZM117.684 239.661H121.06L119.368 241.489L117.684 239.661ZM118.426 250.983L115.458 254.204L112.49 250.983L115.458 247.762L118.426 250.983ZM108.639 255.211L111.607 251.99L114.575 255.211L111.607 258.432L108.639 255.211ZM110.635 259.446L107.667 262.667L104.699 259.446L107.667 256.225L110.635 259.446ZM115.488 256.225L118.456 259.446L115.488 262.667L112.52 259.446L115.488 256.225ZM111.592 249.92L108.624 246.699L111.592 243.478L114.56 246.699L111.592 249.92ZM110.635 250.951L107.667 254.172L104.699 250.951L107.667 247.73L110.635 250.951ZM103.786 249.92L100.818 246.699L103.786 243.478L106.754 246.699L103.786 249.92ZM103.786 251.99L106.754 255.211L103.786 258.432L100.818 255.211L103.786 251.99ZM106.754 263.65L103.786 266.87L100.818 263.65L103.786 260.429L106.754 263.65ZM107.704 264.68L110.672 267.901L107.704 271.122L104.736 267.901L107.704 264.68ZM108.661 263.65L111.629 260.429L114.597 263.65L111.629 266.87L108.661 263.65ZM115.51 264.68L118.478 267.901L115.51 271.122L112.542 267.901L115.51 264.68ZM119.405 268.916L122.373 272.137L120.459 274.206H118.381L116.474 272.137L119.405 268.916ZM116.437 263.65L119.405 260.429L122.373 263.65L119.405 266.87L116.437 263.65ZM116.437 255.178L119.405 251.957L122.373 255.178L119.405 258.399L116.437 255.178ZM118.381 242.456L115.413 245.677L112.445 242.456L115.079 239.597H115.703L118.381 242.456ZM111.548 241.425L109.856 239.597H113.224L111.548 241.425ZM110.59 242.456L107.622 245.677L104.654 242.456L107.288 239.597H107.912L110.59 242.456ZM105.396 239.597L103.712 241.425L102.035 239.597H105.396ZM100.121 239.597L102.762 242.456L99.7942 245.677L97.2269 242.89L97.175 242.134L99.4826 239.621L100.121 239.597ZM97.5979 239.597L97.0563 240.185L97.0043 239.597H97.5979ZM97.4198 245.121L98.8593 246.691L97.7018 248.092L97.4198 245.121ZM98.2212 255.847L98.1099 254.333L98.8519 255.138L98.2138 255.839L98.2212 255.847ZM98.3622 257.771L99.8462 256.161L102.814 259.382L99.8462 262.603L98.659 261.314L98.3622 257.771ZM98.8 263.682V263.545L98.8667 263.617L98.8074 263.682H98.8ZM99.3119 270.502L98.9409 265.598L99.8165 264.648L102.785 267.869L99.8165 271.09L99.3119 270.55V270.502ZM99.5865 274.15L99.5271 273.417L99.8165 273.111L100.774 274.15H99.5865ZM100.774 272.08L103.742 268.859L106.71 272.08L104.803 274.15H102.725L100.774 272.08ZM106.658 274.15L107.615 273.111L108.572 274.15H106.658ZM110.479 274.15L108.565 272.08L111.533 268.859L114.501 272.08L112.601 274.15H110.479ZM114.456 274.15L115.413 273.111L116.371 274.15H114.456ZM123.442 274.15H122.255L123.212 273.111L123.494 273.417L123.442 274.15ZM123.716 270.502L123.212 271.042L120.244 267.821L123.212 264.6L124.08 265.55L123.716 270.502ZM124.236 263.537V263.682L124.176 263.617L124.251 263.537H124.236ZM124.406 261.29L123.212 262.579L120.244 259.358L123.212 256.137L124.696 257.747L124.406 261.29ZM124.807 255.855L124.162 255.146L124.904 254.341L124.807 255.855ZM125.616 245.113L125.393 248.028L124.162 246.691L125.646 245.081L125.616 245.113Z" fill="#BA68C8"/>
<g opacity="0.6">
<path d="M124.28 238.164H95.5723L95.8097 241.312L95.9804 243.559L96.4181 249.405L96.663 252.771L96.9969 257.24L97.1379 259.156L97.1824 259.728L97.3531 261.983L97.5831 265.075L97.7241 266.991L97.8725 268.94L98.0431 271.187L98.1693 272.894L98.3102 274.81L98.3696 275.615H124.718L124.777 274.81L124.918 272.902L125.052 271.187L125.215 268.932L125.364 266.991L125.505 265.075L125.735 261.975L125.905 259.728L125.942 259.156L126.091 257.24L126.425 252.771L126.677 249.413L127.107 243.559L127.271 241.312L127.508 238.164H124.28ZM126.009 240.225L125.453 239.629H126.054L126.009 240.225ZM125.861 242.142L125.809 242.898L123.241 245.677L120.273 242.456L122.908 239.597H123.531L125.861 242.142ZM125.156 252.118L123.271 254.156L120.303 250.935L123.271 247.714L125.304 249.92L125.156 252.118ZM97.8354 249.977L99.8759 247.77L102.844 250.991L99.8759 254.212L97.9689 252.118L97.8354 249.977ZM122.321 246.756L119.353 249.977L116.385 246.756L119.353 243.535L122.321 246.756ZM117.684 239.661H121.06L119.368 241.489L117.684 239.661ZM118.426 250.983L115.458 254.204L112.49 250.983L115.458 247.762L118.426 250.983ZM108.639 255.211L111.607 251.99L114.575 255.211L111.607 258.432L108.639 255.211ZM110.635 259.446L107.667 262.667L104.699 259.446L107.667 256.225L110.635 259.446ZM115.488 256.225L118.456 259.446L115.488 262.667L112.52 259.446L115.488 256.225ZM111.592 249.92L108.624 246.699L111.592 243.478L114.56 246.699L111.592 249.92ZM110.635 250.951L107.667 254.172L104.699 250.951L107.667 247.73L110.635 250.951ZM103.786 249.92L100.818 246.699L103.786 243.478L106.754 246.699L103.786 249.92ZM103.786 251.99L106.754 255.211L103.786 258.432L100.818 255.211L103.786 251.99ZM106.754 263.65L103.786 266.87L100.818 263.65L103.786 260.429L106.754 263.65ZM107.704 264.68L110.672 267.901L107.704 271.122L104.736 267.901L107.704 264.68ZM108.661 263.65L111.629 260.429L114.597 263.65L111.629 266.87L108.661 263.65ZM115.51 264.68L118.478 267.901L115.51 271.122L112.542 267.901L115.51 264.68ZM119.405 268.916L122.373 272.137L120.459 274.206H118.381L116.474 272.137L119.405 268.916ZM116.437 263.65L119.405 260.429L122.373 263.65L119.405 266.87L116.437 263.65ZM116.437 255.178L119.405 251.957L122.373 255.178L119.405 258.399L116.437 255.178ZM118.381 242.456L115.413 245.677L112.445 242.456L115.079 239.597H115.703L118.381 242.456ZM111.548 241.425L109.856 239.597H113.224L111.548 241.425ZM110.59 242.456L107.622 245.677L104.654 242.456L107.288 239.597H107.912L110.59 242.456ZM105.396 239.597L103.712 241.425L102.035 239.597H105.396ZM100.121 239.597L102.762 242.456L99.7942 245.677L97.2269 242.89L97.175 242.134L99.4826 239.621L100.121 239.597ZM97.5979 239.597L97.0563 240.185L97.0043 239.597H97.5979ZM97.4198 245.121L98.8593 246.691L97.7018 248.092L97.4198 245.121ZM98.2212 255.847L98.1099 254.333L98.8519 255.138L98.2138 255.839L98.2212 255.847ZM98.3622 257.771L99.8462 256.161L102.814 259.382L99.8462 262.603L98.659 261.314L98.3622 257.771ZM98.8 263.682V263.545L98.8667 263.617L98.8074 263.682H98.8ZM99.3119 270.502L98.9409 265.598L99.8165 264.648L102.785 267.869L99.8165 271.09L99.3119 270.55V270.502ZM99.5865 274.15L99.5271 273.417L99.8165 273.111L100.774 274.15H99.5865ZM100.774 272.08L103.742 268.859L106.71 272.08L104.803 274.15H102.725L100.774 272.08ZM106.658 274.15L107.615 273.111L108.572 274.15H106.658ZM110.479 274.15L108.565 272.08L111.533 268.859L114.501 272.08L112.601 274.15H110.479ZM114.456 274.15L115.413 273.111L116.371 274.15H114.456ZM123.442 274.15H122.255L123.212 273.111L123.494 273.417L123.442 274.15ZM123.716 270.502L123.212 271.042L120.244 267.821L123.212 264.6L124.08 265.55L123.716 270.502ZM124.236 263.537V263.682L124.176 263.617L124.251 263.537H124.236ZM124.406 261.29L123.212 262.579L120.244 259.358L123.212 256.137L124.696 257.747L124.406 261.29ZM124.807 255.855L124.162 255.146L124.904 254.341L124.807 255.855ZM125.616 245.113L125.393 248.028L124.162 246.691L125.646 245.081L125.616 245.113Z" fill="white"/>
</g>
<path d="M94.9564 240.934H128.139C128.811 240.934 129.356 240.342 129.356 239.613V238.18C129.356 237.45 128.811 236.859 128.139 236.859H94.9564C94.2843 236.859 93.7395 237.45 93.7395 238.18V239.613C93.7395 240.342 94.2843 240.934 94.9564 240.934Z" fill="#BA68C8"/>
<path d="M125.571 273.457H97.5238C96.8517 273.457 96.3069 274.049 96.3069 274.778V276.211C96.3069 276.941 96.8517 277.532 97.5238 277.532H125.571C126.243 277.532 126.788 276.941 126.788 276.211V274.778C126.788 274.049 126.243 273.457 125.571 273.457Z" fill="#BA68C8"/>
<path d="M184.375 209.167V277.532H180.828V220.545H161.321V277.532H157.774V220.545H141.309V277.532H137.762V220.545H118.255V277.532H114.708V209.167H184.375Z" fill="#BA68C8"/>
<path opacity="0.2" d="M184.375 209.167V277.532H180.828V220.545H161.321V277.532H157.774V220.545H118.255V277.532H114.708V209.167H184.375Z" fill="white"/>
<path opacity="0.3" d="M184.375 209.167V277.532H180.828V220.545H161.321V277.532H157.774V209.167H184.375Z" fill="white"/>
<path d="M164.311 193.763H161.595V195.856H164.311V193.763Z" fill="#BA68C8"/>
<path opacity="0.4" d="M164.311 193.763H161.595V195.856H164.311V193.763Z" fill="white"/>
<path d="M166.663 196.275H165.921L165.721 195.607C165.672 195.448 165.578 195.31 165.453 195.212C165.328 195.114 165.178 195.06 165.023 195.059H160.92C160.767 195.062 160.619 195.116 160.495 195.214C160.372 195.312 160.279 195.449 160.23 195.607L160.022 196.275H159.28C159.198 196.275 159.118 196.311 159.06 196.374C159.002 196.438 158.969 196.524 158.969 196.613V197.491H167.019V196.613C167.02 196.565 167.011 196.516 166.992 196.472C166.974 196.427 166.947 196.387 166.913 196.355C166.879 196.323 166.839 196.299 166.796 196.286C166.753 196.272 166.708 196.268 166.663 196.275Z" fill="#BA68C8"/>
<path opacity="0.6" d="M166.663 196.275H165.921L165.721 195.607C165.672 195.448 165.578 195.31 165.453 195.212C165.328 195.114 165.178 195.06 165.023 195.059H160.92C160.767 195.062 160.619 195.116 160.495 195.214C160.372 195.312 160.279 195.449 160.23 195.607L160.022 196.275H159.28C159.198 196.275 159.118 196.311 159.06 196.374C159.002 196.438 158.969 196.524 158.969 196.613V197.491H167.019V196.613C167.02 196.565 167.011 196.516 166.992 196.472C166.974 196.427 166.947 196.387 166.913 196.355C166.879 196.323 166.839 196.299 166.796 196.286C166.753 196.272 166.708 196.268 166.663 196.275Z" fill="white"/>
<path d="M166.752 196.742H159.147C158.303 196.742 157.618 197.485 157.618 198.401V207.516C157.618 208.432 158.303 209.175 159.147 209.175H166.752C167.597 209.175 168.281 208.432 168.281 207.516V198.401C168.281 197.485 167.597 196.742 166.752 196.742Z" fill="#BA68C8"/>
<path d="M169.461 192.209C169.277 191.871 169.016 191.59 168.702 191.395C168.389 191.201 168.034 191.098 167.672 191.097H160.252C160.068 191.098 159.888 191.164 159.742 191.287C159.596 191.409 159.491 191.58 159.444 191.774L159.369 192.096L160.905 193.763H164.615L166.478 192.217H167.962C168.063 192.217 168.162 192.242 168.254 192.289C168.345 192.337 168.425 192.405 168.489 192.49L168.919 193.046H169.898L169.461 192.209Z" fill="#BA68C8"/>
<path opacity="0.6" d="M169.461 192.209C169.277 191.871 169.016 191.59 168.702 191.395C168.389 191.201 168.034 191.098 167.672 191.097H160.252C160.068 191.098 159.888 191.164 159.742 191.287C159.596 191.409 159.491 191.58 159.444 191.774L159.369 192.096L160.905 193.763H164.615L166.478 192.217H167.962C168.063 192.217 168.162 192.242 168.254 192.289C168.345 192.337 168.425 192.405 168.489 192.49L168.919 193.046H169.898L169.461 192.209Z" fill="white"/>
<path d="M136.924 202.999C136.924 202.999 134.082 200.712 136.137 199.23C138.193 197.749 138.193 195.897 138.193 195.897C138.193 195.897 140.419 198.393 141.621 198.498C142.823 198.602 145.828 200.414 145.828 202.427C145.828 204.44 136.924 202.999 136.924 202.999Z" fill="#BA68C8"/>
<path opacity="0.7" d="M136.924 202.999C136.924 202.999 134.082 200.712 136.137 199.23C138.193 197.749 138.193 195.897 138.193 195.897C138.193 195.897 140.419 198.393 141.621 198.498C142.823 198.602 145.828 200.414 145.828 202.427C145.828 204.44 136.924 202.999 136.924 202.999Z" fill="white"/>
<path d="M151.014 201.01H129.778V209.175H151.014V201.01Z" fill="#BA68C8"/>
<path opacity="0.1" d="M151.015 201.01H137.607V209.175H151.015V201.01Z" fill="white"/>
</g>
<defs>
<clipPath id="clip0_77_443">
<path d="M0.5 20C0.5 8.9543 9.45431 0 20.5 0H351.5C362.546 0 371.5 8.95431 371.5 20V280C371.5 291.046 362.546 300 351.5 300H20.5C9.4543 300 0.5 291.046 0.5 280V20Z" fill="white"/>
</clipPath>
</defs>
</svg>
